<svg width="177" height="177" viewBox="0 0 177 177" fill="none" xmlns="http://www.w3.org/2000/svg">
<g clip-path="url(#clip0_7_227)">
<mask id="mask0_7_227" style="mask-type:luminance" maskUnits="userSpaceOnUse" x="0" y="0" width="177" height="177">
<path d="M177 0H0V177H177V0Z" fill="white"/>
</mask>
<g mask="url(#mask0_7_227)">
<mask id="mask1_7_227" style="mask-type:luminance" maskUnits="userSpaceOnUse" x="0" y="0" width="177" height="177">
<path d="M177 0H0V177H177V0Z" fill="white"/>
</mask>
<g mask="url(#mask1_7_227)">
<path d="M167.07 59.46H149.184L124.289 12.438C123.624 11.2566 122.523 10.3818 121.222 9.99994C119.922 9.6181 118.523 9.75947 117.325 10.3939C116.126 11.0284 115.223 12.1057 114.808 13.3964C114.393 14.687 114.498 16.0888 115.101 17.303L137.42 59.461H39.549L61.868 17.302C62.4712 16.0878 62.5764 14.686 62.161 13.3954C61.7456 12.1047 60.8426 11.0274 59.6443 10.3929C58.4461 9.75847 57.0475 9.6171 55.7465 9.99894C54.4456 10.3808 53.3452 11.2556 52.68 12.437L27.78 59.459H9.93C7.29712 59.4619 4.77293 60.5092 2.91129 62.371C1.04966 64.2329 0.0026469 66.7572 0 69.39V80.938C0.00419826 83.4512 0.960119 85.8695 2.6754 87.7063C4.39067 89.5431 6.738 90.6621 9.245 90.838L26.685 163.344C26.9582 164.479 27.6052 165.489 28.5219 166.211C29.4387 166.934 30.5718 167.327 31.739 167.327H145.226C146.393 167.327 147.526 166.934 148.442 166.212C149.359 165.49 150.006 164.481 150.28 163.347L167.76 90.838C170.266 90.6606 172.612 89.541 174.326 87.7044C176.04 85.8677 176.995 83.4502 176.999 80.938V69.39C176.996 66.7575 175.949 64.2336 174.088 62.372C172.226 60.5105 169.703 59.4632 167.07 59.46ZM10.4 69.857H166.6V80.467H10.4V69.857ZM150.356 118.685H127.596L131.069 90.867H157.062L150.356 118.685ZM93.705 156.933V129.082H115.817L112.34 156.933H93.705ZM64.672 156.933L61.192 129.082H83.309V156.933H64.672ZM19.945 90.867H45.939L49.415 118.685H26.636L19.945 90.867ZM56.417 90.867H83.309V118.685H59.893L56.417 90.867ZM93.706 118.685V90.867H120.59L117.117 118.685H93.706ZM29.137 129.085H50.715L54.195 156.936H35.835L29.137 129.085ZM141.137 156.936H122.818L126.295 129.085H147.846L141.137 156.936Z" fill="#C52C7F"/>
</g>
</g>
</g>
<defs>
<clipPath id="clip0_7_227">
<rect width="177" height="177" fill="white"/>
</clipPath>
</defs>
</svg>
