<svg width="177" height="177" viewBox="0 0 177 177" fill="none" xmlns="http://www.w3.org/2000/svg">
<g clip-path="url(#clip0_7_190)">
<mask id="mask0_7_190" style="mask-type:luminance" maskUnits="userSpaceOnUse" x="0" y="0" width="177" height="177">
<path d="M177 0H0V177H177V0Z" fill="white"/>
</mask>
<g mask="url(#mask0_7_190)">
<mask id="mask1_7_190" style="mask-type:luminance" maskUnits="userSpaceOnUse" x="0" y="0" width="177" height="177">
<path d="M177 0H0V177H177V0Z" fill="white"/>
</mask>
<g mask="url(#mask1_7_190)">
<path d="M94.031 62.949C108.774 44.762 132.431 44.249 132.75 44.249V88.5C126.761 88.7647 120.835 89.8291 115.129 91.665L124.168 100.704C126.99 100.076 129.861 99.6945 132.749 99.563C132.735 102.517 132.423 105.461 131.816 108.352L140.663 117.199C142.676 111.534 143.74 105.575 143.812 99.563V16.594C143.812 15.127 143.229 13.72 142.192 12.6827C141.154 11.6453 139.748 11.0625 138.28 11.0625C136.813 11.0625 135.406 11.6453 134.369 12.6827C133.332 13.72 132.749 15.127 132.749 16.594V33.188C131.717 33.188 111.276 33.517 94.03 47.397V5.53101C94.03 4.06397 93.4472 2.65701 92.4099 1.61965C91.3725 0.582293 89.9655 -0.000488281 88.4985 -0.000488281C87.0314 -0.000488281 85.6245 0.582293 84.5871 1.61965C83.5498 2.65701 82.967 4.06397 82.967 5.53101V47.4C75.8839 41.8062 67.7087 37.7565 58.967 35.511L94.031 70.567V62.949Z" fill="#C52C7F"/>
<path d="M44.251 16.594C44.2514 15.8675 44.1086 15.1481 43.8307 14.4769C43.5529 13.8057 43.1455 13.1958 42.6319 12.6821C42.1182 12.1684 41.5083 11.761 40.8371 11.4832C40.1658 11.2054 39.4464 11.0626 38.72 11.063C37.5954 11.0895 36.5072 11.4671 35.608 12.143L44.251 20.786V16.594Z" fill="#C52C7F"/>
<path d="M177 169.179L7.821 -0.000976562L0 7.82102L33.187 41.009V99.562C33.2317 113.233 38.3476 126.4 47.5441 136.515C56.7406 146.63 69.3633 152.973 82.968 154.315V176.999H94.031V154.538C107.475 153.143 119.932 146.841 129.021 136.838L169.178 176.999L177 169.179ZM82.969 90.79V102.709C65.723 88.83 45.283 88.499 44.25 88.499V52.072L82.969 90.79ZM44.25 99.563C44.575 99.563 68.227 100.076 82.969 118.263V143.255C72.3041 141.93 62.4882 136.762 55.3605 128.719C48.2329 120.676 44.2827 110.31 44.25 99.563ZM94.031 143.253V118.262C96.5153 115.272 99.3822 112.622 102.558 110.38L121.029 128.851C114.05 136.737 104.468 141.849 94.032 143.254L94.031 143.253Z" fill="#C52C7F"/>
</g>
</g>
</g>
<defs>
<clipPath id="clip0_7_190">
<rect width="177" height="177" fill="white"/>
</clipPath>
</defs>
</svg>
