<svg width="54" height="53" viewBox="0 0 54 53" fill="none" xmlns="http://www.w3.org/2000/svg">
<g clip-path="url(#clip0_7_248)">
<mask id="mask0_7_248" style="mask-type:luminance" maskUnits="userSpaceOnUse" x="0" y="0" width="54" height="53">
<path d="M53.5 0H0.5V53H53.5V0Z" fill="white"/>
</mask>
<g mask="url(#mask0_7_248)">
<mask id="mask1_7_248" style="mask-type:luminance" maskUnits="userSpaceOnUse" x="0" y="0" width="54" height="53">
<path d="M53.5 0H0.5V53H53.5V0Z" fill="white"/>
</mask>
<g mask="url(#mask1_7_248)">
<path d="M52.61 23.381L28.83 1.71296C28.3308 1.25413 27.6775 0.999512 26.9995 0.999512C26.3215 0.999512 25.6682 1.25413 25.169 1.71296L1.38999 23.381C0.984687 23.7503 0.700569 24.2336 0.574959 24.7673C0.44935 25.3011 0.488121 25.8604 0.686182 26.3717C0.884242 26.883 1.23233 27.3225 1.68472 27.6324C2.13711 27.9422 2.67265 28.108 3.22099 28.108H7.02099V49.817C7.02099 50.2304 7.18524 50.627 7.47761 50.9193C7.76998 51.2117 8.16652 51.376 8.57999 51.376H21.611C21.8157 51.376 22.0184 51.3356 22.2076 51.2573C22.3967 51.1789 22.5686 51.0641 22.7134 50.9193C22.8581 50.7746 22.973 50.6027 23.0513 50.4136C23.1297 50.2244 23.17 50.0217 23.17 49.817V36.635H30.83V49.817C30.83 50.2304 30.9942 50.627 31.2866 50.9193C31.579 51.2117 31.9755 51.376 32.389 51.376H45.422C45.8355 51.376 46.232 51.2117 46.5244 50.9193C46.8167 50.627 46.981 50.2304 46.981 49.817V28.107H50.781C51.3292 28.1068 51.8646 27.9409 52.3169 27.6309C52.7691 27.321 53.117 26.8815 53.315 26.3702C53.5129 25.8589 53.5516 25.2998 53.426 24.7661C53.3003 24.2324 53.0162 23.7492 52.611 23.38L52.61 23.381Z" fill="black"/>
<path d="M46.573 4.11096H36.106L48.133 15.046V5.66996C48.133 5.46515 48.0927 5.26234 48.0143 5.07313C47.9358 4.88392 47.8209 4.71201 47.6761 4.56723C47.5312 4.42245 47.3592 4.30764 47.1699 4.22935C46.9807 4.15106 46.7778 4.11083 46.573 4.11096Z" fill="black"/>
</g>
</g>
</g>
<defs>
<clipPath id="clip0_7_248">
<rect width="54" height="53" fill="white"/>
</clipPath>
</defs>
</svg>
