<svg width="53" height="53" viewBox="0 0 53 53" fill="none" xmlns="http://www.w3.org/2000/svg">
<g clip-path="url(#clip0_7_237)">
<mask id="mask0_7_237" style="mask-type:luminance" maskUnits="userSpaceOnUse" x="0" y="0" width="53" height="53">
<path d="M53 0H0V53H53V0Z" fill="white"/>
</mask>
<g mask="url(#mask0_7_237)">
<mask id="mask1_7_237" style="mask-type:luminance" maskUnits="userSpaceOnUse" x="0" y="0" width="53" height="53">
<path d="M53 0H0V53H53V0Z" fill="white"/>
</mask>
<g mask="url(#mask1_7_237)">
<path d="M52.11 23.381L28.33 1.71296C27.8308 1.25413 27.1775 0.999512 26.4995 0.999512C25.8215 0.999512 25.1682 1.25413 24.669 1.71296L0.889992 23.381C0.484687 23.7503 0.20057 24.2336 0.0749595 24.7673C-0.0506505 25.3011 -0.0118789 25.8604 0.186182 26.3717C0.384243 26.883 0.732329 27.3225 1.18472 27.6324C1.63711 27.9422 2.17264 28.108 2.72099 28.108H6.52099V49.817C6.52099 50.2304 6.68524 50.627 6.97761 50.9193C7.26998 51.2117 7.66652 51.376 8.08 51.376H21.111C21.3157 51.376 21.5185 51.3356 21.7076 51.2573C21.8968 51.1789 22.0686 51.0641 22.2134 50.9193C22.3582 50.7746 22.473 50.6027 22.5513 50.4136C22.6297 50.2244 22.67 50.0217 22.67 49.817V36.635H30.33V49.817C30.33 50.2304 30.4943 50.627 30.7866 50.9193C31.079 51.2117 31.4755 51.376 31.889 51.376H44.922C45.3355 51.376 45.732 51.2117 46.0244 50.9193C46.3168 50.627 46.481 50.2304 46.481 49.817V28.107H50.281C50.8293 28.1068 51.3647 27.9409 51.8169 27.6309C52.2691 27.321 52.6171 26.8815 52.815 26.3702C53.0129 25.8589 53.0516 25.2998 52.926 24.7661C52.8003 24.2324 52.5162 23.7492 52.111 23.38L52.11 23.381Z" fill="#C52C7F"/>
<path d="M46.073 4.11096H35.606L47.633 15.046V5.66996C47.633 5.46515 47.5926 5.26234 47.5142 5.07313C47.4358 4.88392 47.3209 4.71201 47.176 4.56723C47.0312 4.42245 46.8592 4.30764 46.6699 4.22935C46.4806 4.15106 46.2778 4.11083 46.073 4.11096Z" fill="#C52C7F"/>
</g>
</g>
</g>
<defs>
<clipPath id="clip0_7_237">
<rect width="53" height="53" fill="white"/>
</clipPath>
</defs>
</svg>
