<svg width="177" height="177" viewBox="0 0 177 177" fill="none" xmlns="http://www.w3.org/2000/svg">
<g clip-path="url(#clip0_7_214)">
<mask id="mask0_7_214" style="mask-type:luminance" maskUnits="userSpaceOnUse" x="0" y="0" width="177" height="177">
<path d="M177 0H0V177H177V0Z" fill="white"/>
</mask>
<g mask="url(#mask0_7_214)">
<mask id="mask1_7_214" style="mask-type:luminance" maskUnits="userSpaceOnUse" x="0" y="0" width="177" height="177">
<path d="M177 0H0V177H177V0Z" fill="white"/>
</mask>
<g mask="url(#mask1_7_214)">
<path d="M153.537 27.183L150.195 16.196C148.591 11.4745 145.549 7.37389 141.496 4.4698C137.443 1.56571 132.581 0.00402832 127.595 0.00402832C122.609 0.00402832 117.748 1.56571 113.694 4.4698C109.641 7.37389 106.599 11.4745 104.995 16.196L101.657 27.184C98.8478 36.4504 98.2582 46.2476 99.9359 55.784C100.692 59.7479 102.33 63.4909 104.729 66.7358C107.129 69.9806 110.227 72.6441 113.795 74.529L110.056 158.108C109.809 160.414 110.052 162.747 110.769 164.952C111.486 167.158 112.66 169.188 114.216 170.908C117.466 174.463 121.996 176.582 126.808 176.797C131.621 177.013 136.322 175.308 139.877 172.058C140.277 171.692 140.66 171.309 141.027 170.908C142.549 169.236 143.705 167.265 144.421 165.12C145.138 162.975 145.398 160.705 145.187 158.454L141.427 74.516C144.989 72.6294 148.082 69.9662 150.476 66.7233C152.87 63.4804 154.505 59.7408 155.259 55.781C156.936 46.2452 156.346 36.4486 153.537 27.183ZM145.014 53.973C144.461 56.8072 143.173 59.4465 141.279 61.6267C139.386 63.8069 136.953 65.4515 134.224 66.396C133.197 66.7824 132.318 67.4838 131.714 68.3999C131.11 69.3159 130.811 70.3997 130.86 71.496L134.812 159.277C134.902 160.128 134.81 160.988 134.54 161.801C134.271 162.613 133.832 163.359 133.252 163.988C131.748 165.476 129.718 166.31 127.602 166.31C125.486 166.31 123.456 165.476 121.952 163.988C121.343 163.309 120.891 162.504 120.627 161.631C120.363 160.757 120.293 159.837 120.423 158.934L124.344 71.497C124.393 70.4007 124.094 69.3169 123.49 68.4009C122.886 67.4848 122.007 66.7834 120.98 66.397C118.251 65.4525 115.818 63.8079 113.925 61.6277C112.031 59.4475 110.743 56.8082 110.19 53.974C108.799 46.057 109.289 37.9239 111.62 30.231L114.958 19.238C115.914 16.654 117.638 14.4248 119.899 12.8504C122.16 11.276 124.849 10.4321 127.605 10.4321C130.36 10.4321 133.049 11.276 135.31 12.8504C137.571 14.4248 139.295 16.654 140.251 19.238L143.589 30.231C145.916 37.9247 146.404 46.0562 145.014 53.973Z" fill="#C52C7F"/>
<path d="M73 0.0290527C72.3171 0.0290527 71.6409 0.163557 71.01 0.424881C70.3791 0.686205 69.8059 1.06924 69.323 1.5521C68.8402 2.03497 68.4572 2.6082 68.1958 3.2391C67.9345 3.86999 67.8 4.54618 67.8 5.22905V49.8761L53.724 63.9521C53.2089 64.4651 52.8072 65.0805 52.5447 65.7585C52.2822 66.4364 52.1648 67.1619 52.2 67.888L56.75 158.888C56.8037 159.859 56.6569 160.831 56.3186 161.743C55.9804 162.655 55.458 163.487 54.784 164.188C53.417 165.567 51.5582 166.347 49.6165 166.355C47.6748 166.364 45.8092 165.601 44.43 164.234L44.384 164.188C43.7099 163.487 43.1874 162.655 42.8492 161.743C42.5109 160.831 42.3642 159.859 42.418 158.888L46.999 67.888C47.035 67.1623 46.9185 66.4371 46.6571 65.7592C46.3956 65.0813 45.995 64.4657 45.481 63.9521L31.4 49.8761V5.22905C31.4 3.84992 30.8521 2.52729 29.877 1.5521C28.9018 0.576912 27.5791 0.0290527 26.2 0.0290527C24.8209 0.0290527 23.4982 0.576912 22.523 1.5521C21.5479 2.52729 21 3.84992 21 5.22905V52.0291C21.0005 53.408 21.5487 54.7302 22.524 55.705L36.491 69.677L32.055 158.383C31.8284 163.036 33.4595 167.589 36.5894 171.039C39.7194 174.49 44.0919 176.555 48.745 176.782C53.3981 177.009 57.9506 175.378 61.4011 172.248C64.8516 169.118 66.9174 164.745 67.144 160.092C67.172 159.523 67.172 158.953 67.144 158.383L62.708 69.677L76.675 55.705C77.6507 54.7304 78.1992 53.4081 78.2 52.0291V5.22905C78.2 3.84992 77.6521 2.52729 76.677 1.5521C75.7018 0.576912 74.3791 0.0290527 73 0.0290527Z" fill="#C52C7F"/>
<path d="M41.8 0.0290527C40.4208 0.0290527 39.0982 0.576912 38.123 1.5521C37.1478 2.52729 36.6 3.84992 36.6 5.22905V46.8291C36.6 48.2082 37.1478 49.5308 38.123 50.506C39.0982 51.4812 40.4208 52.0291 41.8 52.0291C43.1791 52.0291 44.5017 51.4812 45.4769 50.506C46.4521 49.5308 47 48.2082 47 46.8291V5.22905C47 4.54618 46.8655 3.86999 46.6042 3.2391C46.3428 2.6082 45.9598 2.03497 45.4769 1.5521C44.9941 1.06924 44.4208 0.686205 43.7899 0.424881C43.159 0.163557 42.4828 0.0290527 41.8 0.0290527Z" fill="#C52C7F"/>
<path d="M57.4 0.0290527C56.7171 0.0290527 56.0409 0.163557 55.41 0.424881C54.7791 0.686205 54.2058 1.06924 53.723 1.5521C53.2401 2.03497 52.8571 2.6082 52.5957 3.2391C52.3344 3.86999 52.2 4.54618 52.2 5.22905V46.8291C52.2 48.2082 52.7478 49.5308 53.723 50.506C54.6981 51.4812 56.0209 52.0291 57.4 52.0291C58.7791 52.0291 60.1018 51.4812 61.077 50.506C62.0522 49.5308 62.5999 48.2082 62.5999 46.8291V5.22905C62.5999 4.54618 62.4655 3.86999 62.2042 3.2391C61.9429 2.6082 61.5598 2.03497 61.077 1.5521C60.5941 1.06924 60.0208 0.686205 59.3899 0.424881C58.759 0.163557 58.0829 0.0290527 57.4 0.0290527Z" fill="#C52C7F"/>
</g>
</g>
</g>
<defs>
<clipPath id="clip0_7_214">
<rect width="177" height="177" fill="white"/>
</clipPath>
</defs>
</svg>
