<svg xmlns="http://www.w3.org/2000/svg" xmlns:xlink="http://www.w3.org/1999/xlink" width="177" height="177" viewBox="0 0 177 177">
  <defs>
    <clipPath id="clip-ic_restaurants_home">
      <rect width="177" height="177"/>
    </clipPath>
  </defs>
  <g id="ic_restaurants_home" clip-path="url(#clip-ic_restaurants_home)">
    <g id="restaurants" transform="translate(21)" opacity="0.18">
      <g id="Group_9306" data-name="Group 9306" transform="translate(78.007)">
        <g id="Group_9305" data-name="Group 9305">
          <path id="Path_2816" data-name="Path 2816" d="M310.542,147.138,307.2,136.151a23.868,23.868,0,0,0-45.2,0l-3.338,10.988a61.72,61.72,0,0,0-1.721,28.6A26.9,26.9,0,0,0,270.8,194.484l-3.739,83.579a16.468,16.468,0,0,0,4.16,12.8,18.164,18.164,0,0,0,25.661,1.15q.6-.549,1.15-1.15a16.245,16.245,0,0,0,4.16-12.454l-3.76-83.938a26.894,26.894,0,0,0,13.832-18.735A61.719,61.719,0,0,0,310.542,147.138Zm-8.523,26.79a16.488,16.488,0,0,1-10.79,12.423,5.2,5.2,0,0,0-3.364,5.1l3.952,87.781a6.015,6.015,0,0,1-1.56,4.711,8.034,8.034,0,0,1-11.3,0,6.241,6.241,0,0,1-1.529-5.054l3.921-87.437a5.2,5.2,0,0,0-3.364-5.1,16.488,16.488,0,0,1-10.79-12.423,51.279,51.279,0,0,1,1.43-23.743l3.338-10.993a13.484,13.484,0,0,1,25.293,0l3.338,10.993A51.348,51.348,0,0,1,302.019,173.929Z" transform="translate(-256.012 -119.955)"/>
        </g>
      </g>
      <g id="Group_9308" data-name="Group 9308" transform="translate(0 0.029)">
        <g id="Group_9307" data-name="Group 9307">
          <path id="Path_2817" data-name="Path 2817" d="M188,120a5.2,5.2,0,0,0-5.2,5.2v44.647l-14.076,14.076a5.2,5.2,0,0,0-1.524,3.936l4.55,91a7.083,7.083,0,0,1-1.966,5.3,7.322,7.322,0,0,1-10.354.046l-.046-.046a7.081,7.081,0,0,1-1.966-5.3l4.581-91a5.2,5.2,0,0,0-1.518-3.936L146.4,169.847V125.2a5.2,5.2,0,0,0-10.4,0V172a5.2,5.2,0,0,0,1.524,3.676l13.967,13.972-4.436,88.706a17.565,17.565,0,0,0,35.089,1.709q.042-.854,0-1.709l-4.436-88.706,13.967-13.972A5.2,5.2,0,0,0,193.2,172V125.2A5.2,5.2,0,0,0,188,120Z" transform="translate(-136 -120)"/>
        </g>
      </g>
      <g id="Group_9310" data-name="Group 9310" transform="translate(15.6 0.029)">
        <g id="Group_9309" data-name="Group 9309">
          <path id="Path_2818" data-name="Path 2818" d="M165.2,120a5.2,5.2,0,0,0-5.2,5.2v41.6a5.2,5.2,0,1,0,10.4,0V125.2A5.2,5.2,0,0,0,165.2,120Z" transform="translate(-160 -120)"/>
        </g>
      </g>
      <g id="Group_9312" data-name="Group 9312" transform="translate(31.2 0.029)">
        <g id="Group_9311" data-name="Group 9311">
          <path id="Path_2819" data-name="Path 2819" d="M189.2,120a5.2,5.2,0,0,0-5.2,5.2v41.6a5.2,5.2,0,1,0,10.4,0V125.2A5.2,5.2,0,0,0,189.2,120Z" transform="translate(-184 -120)"/>
        </g>
      </g>
    </g>
  </g>
</svg>
