<svg width="66" height="66" viewBox="0 0 66 66" fill="none" xmlns="http://www.w3.org/2000/svg">
<g clip-path="url(#clip0_7_272)">
<mask id="mask0_7_272" style="mask-type:luminance" maskUnits="userSpaceOnUse" x="0" y="0" width="66" height="66">
<path d="M66 0H0V66H66V0Z" fill="white"/>
</mask>
<g mask="url(#mask0_7_272)">
<mask id="mask1_7_272" style="mask-type:luminance" maskUnits="userSpaceOnUse" x="0" y="0" width="66" height="66">
<path d="M66 0H0V66H66V0Z" fill="white"/>
</mask>
<g mask="url(#mask1_7_272)">
<mask id="mask2_7_272" style="mask-type:luminance" maskUnits="userSpaceOnUse" x="0" y="0" width="66" height="66">
<path d="M66 0H0V66H66V0Z" fill="white"/>
</mask>
<g mask="url(#mask2_7_272)">
<path d="M56.268 59.3551H38.778V45.8861H28.783V59.3551H11.293V37.5981C11.3237 37.2961 11.4718 37.0182 11.7054 36.8244C11.9391 36.6306 12.2395 36.5364 12.542 36.5621C12.8448 36.5358 13.1458 36.6298 13.3799 36.8236C13.6139 37.0175 13.7623 37.2957 13.793 37.5981V57.2831H26.285V43.8141H41.276V57.2831H53.769V38.6341C53.8228 38.3418 53.9773 38.0776 54.2057 37.8875C54.434 37.6973 54.7218 37.5932 55.019 37.5932C55.3162 37.5932 55.604 37.6973 55.8323 37.8875C56.0607 38.0776 56.2152 38.3418 56.269 38.6341L56.268 59.3551Z" fill="#C52C7F" stroke="#C52C7F" stroke-width="2"/>
<path d="M61.288 30.34C60.9878 30.3426 60.6959 30.2412 60.462 30.053L33.777 7.94503L7.09898 30.053C6.85709 30.2445 6.55619 30.346 6.24775 30.3401C5.9393 30.3343 5.64246 30.2215 5.40798 30.021C5.30095 29.93 5.21565 29.8162 5.15831 29.6879C5.10097 29.5596 5.07305 29.4202 5.07659 29.2797C5.08014 29.1392 5.11507 29.0013 5.17881 28.8761C5.24255 28.7509 5.3335 28.6415 5.44498 28.556L33.777 5.07703L62.115 28.554C62.2265 28.6395 62.3174 28.7489 62.3812 28.8741C62.4449 28.9993 62.4799 29.1372 62.4834 29.2777C62.4869 29.4182 62.459 29.5576 62.4017 29.6859C62.3443 29.8142 62.259 29.928 62.152 30.019C61.9136 30.2291 61.6058 30.3435 61.288 30.34Z" fill="#C52C7F" stroke="#C52C7F" stroke-width="2"/>
<path d="M51.585 17.907C51.3102 17.907 51.0467 17.7979 50.8524 17.6036C50.6581 17.4093 50.549 17.1458 50.549 16.871V10.655H44.333C44.0582 10.655 43.7947 10.5459 43.6004 10.3516C43.4061 10.1573 43.297 9.89377 43.297 9.61901C43.297 9.34424 43.4061 9.08073 43.6004 8.88645C43.7947 8.69216 44.0582 8.58301 44.333 8.58301H52.621V16.871C52.621 17.1458 52.5118 17.4093 52.3176 17.6036C52.1233 17.7979 51.8598 17.907 51.585 17.907Z" fill="#C52C7F" stroke="#C52C7F" stroke-width="2"/>
</g>
</g>
</g>
</g>
<defs>
<clipPath id="clip0_7_272">
<rect width="66" height="66" fill="white"/>
</clipPath>
</defs>
</svg>
