<svg xmlns="http://www.w3.org/2000/svg" xmlns:xlink="http://www.w3.org/1999/xlink" width="66" height="66" viewBox="0 0 66 66">
  <defs>
    <clipPath id="clip-menu_restaurants_selector">
      <rect width="66" height="66"/>
    </clipPath>
  </defs>
  <g id="menu_restaurants_selector" clip-path="url(#clip-menu_restaurants_selector)">
    <g id="Group_9511" data-name="Group 9511" transform="translate(-60 -540)">
      <g id="Component_3_2" data-name="Component 3 – 2" transform="translate(60 540)">
        <g id="Rectangle_3451" data-name="Rectangle 3451" fill="#ce7198" stroke="#707070" stroke-width="0.5" opacity="0">
          <rect width="66" height="66" stroke="none"/>
          <rect x="0.25" y="0.25" width="65.5" height="65.5" fill="none"/>
        </g>
        <g id="dish" transform="translate(10.121 5.008)">
          <g id="Group_9306" data-name="Group 9306" transform="translate(28.03 0)">
            <g id="Group_9305" data-name="Group 9305">
              <path id="Path_2816" data-name="Path 2816" d="M275.606,128.708l-1.2-3.538c-1.524-4.019-6.395-6.17-10.88-4.8a8.182,8.182,0,0,0-5.361,4.8l-1.2,3.538a17.892,17.892,0,0,0-.618,9.209,8.811,8.811,0,0,0,4.978,6.036l-1.343,26.911a4.959,4.959,0,0,0,1.495,4.122,7.07,7.07,0,0,0,9.221.37q.216-.177.413-.37a4.9,4.9,0,0,0,1.495-4.01l-1.351-27.027a8.808,8.808,0,0,0,4.97-6.033A17.89,17.89,0,0,0,275.606,128.708Zm-3.062,8.626a5.533,5.533,0,0,1-3.877,4,1.682,1.682,0,0,0-1.209,1.642l1.42,28.264a1.814,1.814,0,0,1-.561,1.517,3.129,3.129,0,0,1-4.062,0,1.873,1.873,0,0,1-.549-1.627l1.409-28.154a1.682,1.682,0,0,0-1.209-1.642,5.533,5.533,0,0,1-3.877-4,14.866,14.866,0,0,1,.514-7.645l1.2-3.54a5.023,5.023,0,0,1,6.225-2.566,4.623,4.623,0,0,1,2.863,2.566l1.2,3.54A14.883,14.883,0,0,1,272.543,137.334Z" transform="translate(-256.012 -119.955)" fill="#c52c7f" stroke="#fff" stroke-width="0.5"/>
            </g>
          </g>
          <g id="Group_9308" data-name="Group 9308" transform="translate(0 0.011)">
            <g id="Group_9307" data-name="Group 9307">
              <path id="Path_2817" data-name="Path 2817" d="M154.685,120a1.779,1.779,0,0,0-1.868,1.674v14.375l-5.058,4.532a1.584,1.584,0,0,0-.547,1.267l1.635,29.3a2.15,2.15,0,0,1-.706,1.706,2.851,2.851,0,0,1-3.721.015l-.016-.015a2.149,2.149,0,0,1-.706-1.706l1.646-29.3a1.584,1.584,0,0,0-.546-1.267l-5.06-4.532V121.674a1.88,1.88,0,0,0-3.737,0v15.068a1.591,1.591,0,0,0,.547,1.184l5.019,4.5-1.594,28.561c-.17,3.12,2.515,5.772,6,5.924s6.442-2.254,6.611-5.374a5.044,5.044,0,0,0,0-.55l-1.594-28.561,5.019-4.5a1.591,1.591,0,0,0,.547-1.184V121.674A1.779,1.779,0,0,0,154.685,120Z" transform="translate(-136 -120)" fill="#c52c7f" stroke="#fff" stroke-width="0.5"/>
            </g>
          </g>
          <g id="Group_9310" data-name="Group 9310" transform="translate(5.605 0.011)">
            <g id="Group_9309" data-name="Group 9309">
              <path id="Path_2818" data-name="Path 2818" d="M161.868,120A1.869,1.869,0,0,0,160,121.868v14.948a1.868,1.868,0,1,0,3.737,0V121.868A1.869,1.869,0,0,0,161.868,120Z" transform="translate(-160 -120)" fill="#c52c7f" stroke="#fff" stroke-width="0.5"/>
            </g>
          </g>
          <g id="Group_9312" data-name="Group 9312" transform="translate(11.211 0.011)">
            <g id="Group_9311" data-name="Group 9311">
              <path id="Path_2819" data-name="Path 2819" d="M185.868,120A1.869,1.869,0,0,0,184,121.868v14.948a1.869,1.869,0,0,0,3.737,0V121.868A1.869,1.869,0,0,0,185.868,120Z" transform="translate(-184 -120)" fill="#c52c7f" stroke="#fff" stroke-width="0.5"/>
            </g>
          </g>
        </g>
      </g>
    </g>
  </g>
</svg>
