<svg xmlns="http://www.w3.org/2000/svg" width="67" height="66" viewBox="0 0 67 66" fill="none">
<mask id="mask0_7_288" style="mask-type:luminance" maskUnits="userSpaceOnUse" x="0" y="0" width="67" height="66" fill="#000000">
<path d="M66.5 0H0.5V66H66.5V0Z" fill="white"/>
</mask>
<g mask="url(#mask0_7_288)">
<mask id="mask1_7_288" style="mask-type:luminance" maskUnits="userSpaceOnUse" x="0" y="0" width="67" height="66" fill="#000000">
<path d="M66.5 0H0.5V66H66.5V0Z" fill="white"/>
</mask>
<g mask="url(#mask1_7_288)">
<mask id="mask2_7_288" style="mask-type:luminance" maskUnits="userSpaceOnUse" x="0" y="0" width="67" height="66" fill="#000000">
<path d="M66.5 0H0.5V66H66.5V0Z" fill="white"/>
</mask>
<g mask="url(#mask2_7_288)">
<path d="M56.768 59.3551H39.278V45.8861H29.283V59.3551H11.793V37.5981C11.8236 37.2961 11.9717 37.0182 12.2054 36.8244C12.439 36.6306 12.7395 36.5364 13.042 36.5621C13.3448 36.5358 13.6457 36.6298 13.8798 36.8236C14.1139 37.0175 14.2623 37.2957 14.293 37.5981V57.2831H26.785V43.8141H41.776V57.2831H54.269V38.6341C54.3228 38.3418 54.4773 38.0776 54.7056 37.8875C54.934 37.6973 55.2218 37.5932 55.519 37.5932C55.8161 37.5932 56.1039 37.6973 56.3323 37.8875C56.5607 38.0776 56.7152 38.3418 56.769 38.6341L56.768 59.3551Z" fill="#d1d1d1" stroke="#d1d1d1" stroke-width="2"/>
<path d="M61.788 30.34C61.4878 30.3426 61.1959 30.2412 60.962 30.053L34.277 7.94503L7.59898 30.053C7.35708 30.2445 7.05619 30.346 6.74775 30.3401C6.4393 30.3343 6.14246 30.2215 5.90798 30.021C5.80095 29.93 5.71565 29.8162 5.65831 29.6879C5.60097 29.5596 5.57305 29.4202 5.57659 29.2797C5.58014 29.1392 5.61507 29.0013 5.67881 28.8761C5.74255 28.7509 5.83349 28.6415 5.94498 28.556L34.277 5.07703L62.615 28.554C62.7265 28.6395 62.8174 28.7489 62.8812 28.8741C62.9449 28.9993 62.9798 29.1372 62.9834 29.2777C62.9869 29.4182 62.959 29.5576 62.9017 29.6859C62.8443 29.8142 62.759 29.928 62.652 30.019C62.4135 30.2291 62.1057 30.3435 61.788 30.34Z" fill="#d1d1d1" stroke="#d1d1d1" stroke-width="2"/>
<path d="M52.085 17.907C51.8102 17.907 51.5467 17.7979 51.3524 17.6036C51.1581 17.4093 51.049 17.1458 51.049 16.871V10.655H44.833C44.5582 10.655 44.2947 10.5459 44.1004 10.3516C43.9061 10.1573 43.797 9.89377 43.797 9.61901C43.797 9.34424 43.9061 9.08073 44.1004 8.88645C44.2947 8.69216 44.5582 8.58301 44.833 8.58301H53.121V16.871C53.121 17.1458 53.0118 17.4093 52.8176 17.6036C52.6233 17.7979 52.3598 17.907 52.085 17.907Z" fill="#d1d1d1" stroke="#d1d1d1" stroke-width="2"/>
</g>
</g>
</g>
</svg>