<?xml version="1.0" standalone="no"?>
<!DOCTYPE svg PUBLIC "-//W3C//DTD SVG 20010904//EN"
 "http://www.w3.org/TR/2001/REC-SVG-20010904/DTD/svg10.dtd">
<svg version="1.0" xmlns="http://www.w3.org/2000/svg"
 width="512.000000pt" height="512.000000pt" viewBox="0 0 512.000000 512.000000"
 preserveAspectRatio="xMidYMid meet">

<g transform="translate(0.000000,512.000000) scale(0.100000,-0.100000)"
fill="#000000" stroke="none">
<path d="M1876 4755 c-107 -30 -202 -126 -231 -236 -20 -73 -20 -231 0 -269
28 -54 98 -75 154 -46 48 25 55 42 61 154 7 113 17 142 59 164 35 19 1247 19
1282 0 42 -22 52 -51 59 -164 6 -112 13 -129 61 -154 56 -29 126 -8 154 46 20
38 20 196 0 269 -29 112 -124 207 -236 236 -77 21 -1288 20 -1363 0z"/>
<path d="M294 3950 c-114 -17 -212 -91 -262 -198 l-27 -57 -3 -434 c-3 -415
-2 -437 18 -502 26 -86 103 -175 180 -208 36 -15 1855 -431 1886 -431 1 0 4
-93 6 -207 3 -228 6 -240 64 -268 47 -22 761 -22 808 0 58 28 61 40 64 268 2
114 5 207 6 207 31 0 1850 416 1886 431 77 33 154 122 180 208 20 65 21 87 18
502 l-3 434 -27 58 c-36 75 -112 149 -185 179 l-58 23 -2250 1 c-1237 1 -2273
-2 -2301 -6z m4547 -250 c16 -12 33 -36 39 -58 15 -54 12 -777 -3 -821 -7 -19
-23 -42 -37 -52 -16 -12 -328 -86 -915 -217 l-890 -199 -7 60 c-10 83 -24 113
-63 131 -49 24 -761 24 -810 0 -39 -18 -53 -48 -63 -131 l-7 -60 -890 199
c-587 131 -899 205 -915 217 -14 10 -30 33 -37 52 -15 43 -18 767 -3 819 5 19
22 45 37 57 l28 23 2253 0 c2254 0 2254 0 2283 -20z m-2051 -1605 l0 -235
-230 0 -230 0 0 235 0 235 230 0 230 0 0 -235z"/>
<path d="M193 2319 c-17 -5 -41 -22 -53 -38 -20 -29 -20 -33 -18 -853 l3 -823
26 -56 c34 -72 96 -134 168 -168 l56 -26 2185 0 2185 0 56 26 c72 34 134 96
168 168 l26 56 3 823 c2 818 2 824 -18 852 -23 33 -77 52 -121 43 -38 -7 -75
-45 -83 -84 -3 -18 -6 -379 -6 -803 0 -746 -1 -772 -20 -803 -13 -21 -31 -35
-57 -42 -53 -15 -4213 -15 -4266 0 -76 21 -71 -33 -77 864 -5 844 -4 824 -49
852 -27 17 -74 22 -108 12z"/>
</g>
</svg>
