<?xml version="1.0" standalone="no"?>
<!DOCTYPE svg PUBLIC "-//W3C//DTD SVG 20010904//EN"
 "http://www.w3.org/TR/2001/REC-SVG-20010904/DTD/svg10.dtd">
<svg version="1.0" xmlns="http://www.w3.org/2000/svg"
 width="512.000000pt" height="512.000000pt" viewBox="0 0 512.000000 512.000000"
 preserveAspectRatio="xMidYMid meet">

<g transform="translate(0.000000,512.000000) scale(0.100000,-0.100000)"
fill="#000000" stroke="none">
<path d="M1931 4971 c-6 -11 -11 -31 -11 -45 0 -14 -21 -66 -46 -115 -43 -82
-47 -94 -47 -161 0 -67 4 -79 47 -161 40 -78 46 -97 46 -150 0 -53 -6 -72 -40
-134 -64 -115 -72 -211 -17 -203 17 2 24 14 33 53 6 28 30 85 52 128 39 73 42
84 42 157 0 74 -3 83 -47 167 -64 122 -64 164 1 287 41 78 47 96 44 140 -3 44
-6 51 -25 54 -14 2 -26 -4 -32 -17z"/>
<path d="M2367 4983 c-3 -5 -7 -28 -11 -53 -4 -25 -21 -70 -39 -100 -46 -76
-57 -113 -57 -186 0 -56 5 -74 45 -150 25 -47 48 -102 51 -123 l6 -37 -58 -18
c-67 -21 -124 -71 -124 -109 0 -38 38 -77 107 -108 l63 -28 0 -131 0 -130 -27
0 c-41 0 -196 -35 -293 -65 -120 -38 -318 -134 -430 -210 -435 -294 -723 -785
-756 -1293 l-7 -102 -331 0 c-370 0 -376 -1 -376 -63 0 -18 4 -37 8 -44 4 -6
93 -60 197 -120 l190 -108 359 -5 360 -5 13 -69 c13 -74 46 -121 90 -132 32
-8 29 -15 -21 -47 -65 -41 -148 -133 -144 -160 6 -42 36 -31 112 41 106 101
223 152 349 152 32 0 201 -22 375 -49 247 -39 375 -53 580 -66 145 -9 271 -19
280 -22 84 -29 154 -164 107 -203 -13 -11 -100 -12 -427 -7 -460 7 -470 6
-581 -57 -83 -48 -99 -68 -75 -93 16 -16 23 -14 114 33 l96 49 444 -4 443 -4
36 36 c25 25 35 44 35 66 0 25 8 36 46 62 26 17 103 77 173 132 69 56 142 107
161 114 84 30 150 5 150 -56 0 -44 -112 -203 -268 -378 -112 -127 -295 -269
-437 -341 -122 -61 -131 -62 -561 -62 -380 0 -533 -9 -562 -32 -7 -6 -12 -21
-10 -32 3 -18 9 -21 43 -18 22 1 249 6 505 10 l465 8 67 26 c260 99 548 356
773 687 56 83 57 86 53 143 l-4 58 38 0 c92 0 143 47 161 146 l13 69 360 5
359 5 183 104 c101 57 190 110 198 118 8 8 14 30 14 48 0 64 -4 65 -377 65
l-333 0 0 53 c0 28 -7 98 -15 154 -92 646 -542 1186 -1162 1393 -178 59 -418
95 -593 88 l-85 -3 -5 130 c-3 79 -10 139 -18 153 -7 12 -43 37 -80 55 -37 17
-67 37 -66 42 4 38 154 75 304 75 150 0 302 -38 303 -75 0 -5 -29 -25 -66 -42
-82 -40 -99 -68 -95 -156 3 -52 6 -62 22 -65 29 -6 46 25 46 80 l0 49 63 28
c108 49 134 106 74 166 -54 54 -143 77 -324 83 l-152 4 -11 51 c-6 27 -27 78
-48 111 -34 56 -37 67 -37 136 0 69 3 80 37 136 62 101 74 204 23 204 -13 0
-26 -3 -28 -7z m344 -1233 c362 -37 673 -172 947 -410 311 -271 522 -697 549
-1106 l6 -94 -1653 0 -1653 0 6 94 c17 262 112 541 261 771 334 513 937 805
1537 745z m2198 -1684 c-2 -3 -81 -48 -174 -100 l-170 -96 -2004 0 -2004 0
-156 87 c-86 47 -165 92 -176 100 -16 11 376 13 2334 13 1295 0 2352 -2 2350
-4z m-3279 -310 c6 -24 25 -58 40 -75 l29 -31 -162 0 c-182 1 -193 4 -208 67
-20 88 -28 83 140 83 l148 0 13 -44z m1695 -184 c-29 -25 -168 -134 -216 -170
l-56 -41 -11 23 c-20 44 -72 93 -119 114 -40 17 -95 23 -313 37 -146 9 -303
23 -350 30 -75 11 -20 13 495 14 318 0 575 -3 570 -7z"/>
<path d="M1915 3362 c-116 -61 -154 -86 -248 -161 -155 -126 -302 -312 -387
-493 -40 -86 -43 -111 -12 -123 22 -8 36 9 83 105 65 135 145 247 259 360 109
110 257 218 361 264 66 29 87 51 72 74 -17 27 -33 24 -128 -26z"/>
<path d="M2796 4968 c-3 -13 -7 -38 -10 -57 -3 -18 -22 -60 -42 -92 -66 -109
-68 -229 -4 -331 31 -50 57 -61 80 -33 10 12 6 25 -22 72 -28 50 -33 67 -32
123 0 58 5 75 48 154 40 75 47 95 44 135 -3 42 -5 46 -30 49 -22 3 -28 -1 -32
-20z"/>
<path d="M3236 4982 c-2 -4 -7 -25 -11 -47 -4 -22 -27 -78 -51 -123 -41 -78
-44 -89 -44 -162 0 -74 3 -83 47 -167 64 -122 64 -164 -1 -287 -41 -78 -47
-96 -44 -140 2 -41 7 -52 22 -54 25 -5 46 23 46 60 0 15 21 68 46 117 43 82
47 94 47 161 0 67 -4 79 -47 161 -40 78 -46 97 -46 150 0 53 6 72 40 134 44
79 64 158 49 187 -10 18 -44 25 -53 10z"/>
<path d="M796 1215 c-171 -140 -189 -162 -170 -212 16 -42 657 -821 686 -834
15 -6 38 -9 50 -6 21 6 239 177 316 249 28 26 33 36 30 69 -3 35 -41 85 -333
443 -181 222 -340 409 -353 415 -13 6 -31 11 -42 11 -10 0 -93 -61 -184 -135z
m657 -655 c58 -65 13 -170 -74 -170 -28 0 -77 27 -89 49 -14 27 -12 93 4 113
22 29 69 49 101 43 17 -3 42 -19 58 -35z"/>
</g>
</svg>
