<?xml version="1.0" standalone="no"?>
<!DOCTYPE svg PUBLIC "-//W3C//DTD SVG 20010904//EN"
 "http://www.w3.org/TR/2001/REC-SVG-20010904/DTD/svg10.dtd">
<svg version="1.0" xmlns="http://www.w3.org/2000/svg"
 width="512.000000pt" height="512.000000pt" viewBox="0 0 512.000000 512.000000"
 preserveAspectRatio="xMidYMid meet">

<g transform="translate(0.000000,512.000000) scale(0.100000,-0.100000)"
fill="#ffffff" stroke="none">
<path d="M1883 4793 c-21 -11 -218 -250 -618 -749 l-587 -734 -279 0 c-261 0
-282 -1 -319 -20 -26 -13 -47 -34 -60 -60 -19 -37 -20 -58 -20 -370 0 -312 1
-333 20 -370 32 -63 77 -80 208 -80 l109 0 283 -992 c156 -546 292 -1010 302
-1030 12 -24 33 -45 58 -58 39 -20 56 -20 1580 -20 1524 0 1541 0 1580 20 25
13 46 34 58 58 10 20 146 484 302 1030 l283 992 109 0 c131 0 176 17 208 80
19 37 20 58 20 370 0 312 -1 333 -20 370 -13 26 -34 47 -60 60 -37 19 -58 20
-319 20 l-279 0 -587 734 c-440 550 -595 737 -621 750 -125 59 -261 -75 -198
-196 9 -17 240 -311 515 -654 274 -343 499 -626 499 -629 0 -3 -670 -5 -1490
-5 -820 0 -1490 2 -1490 5 0 3 225 286 499 629 275 343 506 637 515 654 63
122 -77 257 -201 195z m2937 -1933 l0 -150 -2260 0 -2260 0 0 150 0 150 2260
0 2260 0 0 -150z m-354 -467 c-3 -10 -118 -415 -257 -900 l-252 -883 -1397 0
-1397 0 -252 883 c-139 485 -254 890 -257 900 -5 16 90 17 1906 17 1816 0
1911 -1 1906 -17z"/>
<path d="M1520 2093 c-49 -25 -80 -76 -80 -130 0 -76 149 -945 168 -977 75
-128 272 -77 272 71 0 76 -149 945 -168 977 -39 67 -125 94 -192 59z"/>
<path d="M2488 2089 c-23 -12 -46 -35 -58 -59 -19 -38 -20 -58 -20 -520 0
-462 1 -482 20 -520 23 -45 80 -80 130 -80 50 0 107 35 130 80 19 38 20 58 20
520 0 462 -1 482 -20 520 -37 73 -127 99 -202 59z"/>
<path d="M3490 2099 c-32 -13 -59 -38 -76 -71 -16 -31 -164 -907 -164 -971 0
-148 197 -199 272 -71 19 32 168 901 168 977 0 102 -106 173 -200 136z"/>
</g>
</svg>
