<?xml version="1.0" standalone="no"?>
<!DOCTYPE svg PUBLIC "-//W3C//DTD SVG 20010904//EN"
 "http://www.w3.org/TR/2001/REC-SVG-20010904/DTD/svg10.dtd">
<svg version="1.0" xmlns="http://www.w3.org/2000/svg"
 width="512.000000pt" height="512.000000pt" viewBox="0 0 512.000000 512.000000"
 preserveAspectRatio="xMidYMid meet">

<g transform="translate(0.000000,512.000000) scale(0.100000,-0.100000)"
fill="#000000" stroke="none">
<path d="M1176 4790 c-16 -5 -46 -23 -67 -40 -34 -27 -45 -30 -110 -30 -103 0
-145 -16 -206 -77 -29 -28 -53 -59 -53 -67 0 -13 -15 -16 -93 -16 -156 0 -266
-40 -357 -130 -102 -103 -130 -195 -130 -430 0 -235 28 -327 130 -430 78 -77
202 -130 306 -130 75 0 144 -30 199 -85 69 -68 85 -121 85 -276 l0 -119 -55 0
c-47 0 -60 -4 -82 -26 -25 -25 -26 -29 -19 -110 13 -174 81 -319 211 -449 125
-125 267 -194 433 -210 l72 -8 0 -223 c0 -247 15 -393 55 -543 48 -178 136
-358 255 -523 59 -82 227 -251 314 -315 332 -246 735 -351 1138 -298 347 46
646 193 893 440 202 201 331 419 406 684 49 177 59 290 59 699 l0 367 68 36
c244 133 375 418 317 694 -50 238 -252 440 -490 490 -453 95 -856 -307 -760
-758 39 -185 179 -363 348 -443 l39 -18 -4 -406 c-4 -402 -5 -406 -31 -505
-63 -236 -207 -453 -396 -596 -94 -71 -267 -155 -386 -186 -89 -23 -119 -26
-265 -26 -147 0 -176 3 -265 26 -119 32 -294 116 -386 186 -225 172 -379 434
-418 715 -6 43 -11 173 -11 290 l0 213 108 6 c197 10 338 73 477 212 130 130
198 275 211 449 7 81 6 85 -19 110 -22 22 -35 26 -82 26 l-55 0 0 118 c0 159
15 208 84 278 57 57 122 84 201 84 103 0 227 53 305 130 102 103 130 195 130
430 0 235 -28 327 -130 430 -91 90 -201 130 -357 130 -78 0 -93 3 -93 16 0 8
-24 39 -52 67 -62 61 -104 77 -207 77 -65 0 -76 3 -110 30 -52 42 -88 50 -234
50 -122 0 -129 -1 -152 -25 l-25 -24 0 -271 0 -271 25 -24 c23 -24 29 -25 153
-25 141 0 179 8 234 51 33 26 45 29 109 29 103 0 145 16 207 77 28 28 52 59
52 67 0 13 15 16 89 16 122 0 182 -20 246 -85 76 -75 88 -121 83 -337 -3 -159
-5 -177 -27 -218 -53 -102 -126 -147 -260 -160 -138 -15 -221 -50 -301 -131
-95 -95 -130 -198 -130 -386 l0 -123 -55 0 c-75 0 -105 -28 -105 -97 -1 -87
-54 -167 -135 -204 -36 -17 -72 -19 -386 -19 l-347 0 -53 28 c-72 37 -109 96
-118 188 -9 85 -29 104 -107 104 l-54 0 0 123 c0 188 -35 291 -131 387 -79 79
-200 130 -308 130 -114 0 -234 86 -265 190 -22 75 -22 345 0 420 22 74 100
152 174 174 74 22 230 22 230 0 0 -8 24 -39 53 -67 61 -61 103 -77 206 -77 64
0 76 -3 109 -29 55 -43 93 -51 234 -51 124 0 130 1 153 25 l25 24 0 271 0 271
-25 24 c-23 24 -29 25 -157 24 -73 0 -146 -5 -162 -9z m-136 -310 l0 -80 -55
0 c-67 0 -105 29 -105 80 0 51 38 80 105 80 l55 0 0 -80z m1495 55 c16 -15 25
-36 25 -55 0 -51 -38 -80 -105 -80 l-55 0 0 80 0 80 55 0 c46 0 60 -4 80 -25z
m1900 -1030 c256 -67 415 -329 350 -580 -62 -237 -291 -393 -529 -358 -194 28
-351 168 -401 358 -89 343 237 669 580 580z"/>
<path d="M4220 3344 c-227 -82 -293 -362 -125 -529 66 -66 125 -90 225 -89 72
0 93 4 136 26 75 39 107 70 145 140 30 57 33 71 34 148 0 100 -24 159 -90 225
-82 82 -222 116 -325 79z"/>
</g>
</svg>
