<?xml version="1.0" encoding="UTF-8"?>
<!DOCTYPE svg PUBLIC "-//W3C//DTD SVG 1.1//EN" "http://www.w3.org/Graphics/SVG/1.1/DTD/svg11.dtd">
<svg xmlns="http://www.w3.org/2000/svg" version="1.1" width="176px" height="176px" style="shape-rendering:geometricPrecision; text-rendering:geometricPrecision; image-rendering:optimizeQuality; fill-rule:evenodd; clip-rule:evenodd" xmlns:xlink="http://www.w3.org/1999/xlink">
<g><path style="opacity:0.095" fill="#000000" d="M 74.5,-0.5 C 82.8333,-0.5 91.1667,-0.5 99.5,-0.5C 136.654,6.52043 160.821,28.1871 172,64.5C 173.499,71.9295 174.666,79.2628 175.5,86.5C 175.5,87.1667 175.5,87.8333 175.5,88.5C 171.075,135.48 145.742,163.98 99.5,174C 53.7349,177.71 21.9016,158.544 4,116.5C 2.47318,111.044 0.973182,105.711 -0.5,100.5C -0.5,91.1667 -0.5,81.8333 -0.5,72.5C 9.03917,32.2943 34.0392,7.96097 74.5,-0.5 Z M 79.5,13.5 C 117.17,12.6922 143.003,29.6922 157,64.5C 166.473,102.434 154.639,131.601 121.5,152C 85.9082,167.875 55.0749,161.375 29,132.5C 8.36988,102.162 8.36988,71.8285 29,41.5C 42.4616,25.8257 59.2949,16.4924 79.5,13.5 Z"/></g>
<g><path style="opacity:0.095" fill="#000000" d="M 85.5,40.5 C 89.8884,39.9433 93.0551,41.6099 95,45.5C 95.4999,57.4954 95.6665,69.4954 95.5,81.5C 107.838,81.3335 120.171,81.5001 132.5,82C 136.769,86.7091 136.436,91.0424 131.5,95C 119.505,95.4999 107.505,95.6665 95.5,95.5C 95.6665,107.171 95.4999,118.838 95,130.5C 92.447,135.626 88.6136,136.793 83.5,134C 81.9963,132.509 81.1629,130.676 81,128.5C 80.5002,117.505 80.3335,106.505 80.5,95.5C 68.8286,95.6665 57.1619,95.4999 45.5,95C 40.5656,92.3351 39.3989,88.5018 42,83.5C 42.7504,82.8742 43.5838,82.3742 44.5,82C 56.4954,81.5001 68.4954,81.3335 80.5,81.5C 80.3335,70.495 80.5002,59.495 81,48.5C 81.2463,44.9953 82.7463,42.3286 85.5,40.5 Z"/></g>
</svg>
