<?xml version="1.0" encoding="UTF-8"?>
<!DOCTYPE svg PUBLIC "-//W3C//DTD SVG 1.1//EN" "http://www.w3.org/Graphics/SVG/1.1/DTD/svg11.dtd">
<svg xmlns="http://www.w3.org/2000/svg" version="1.1" width="85px" height="42px" style="shape-rendering:geometricPrecision; text-rendering:geometricPrecision; image-rendering:optimizeQuality; fill-rule:evenodd; clip-rule:evenodd" xmlns:xlink="http://www.w3.org/1999/xlink">
<g><path style="opacity:0.968" fill="#3d525f" d="M 61.5,-0.5 C 62.5,-0.5 63.5,-0.5 64.5,-0.5C 70.8333,6.5 77.5,13.1667 84.5,19.5C 84.5,20.1667 84.5,20.8333 84.5,21.5C 77.5,27.8333 70.8333,34.5 64.5,41.5C 63.5,41.5 62.5,41.5 61.5,41.5C 61.3505,40.448 61.5172,39.448 62,38.5C 67.5,33 73,27.5 78.5,22C 52.1688,21.5 25.8354,21.3334 -0.5,21.5C -0.5,20.5 -0.5,19.5 -0.5,18.5C 25.8354,18.6666 52.1688,18.5 78.5,18C 72.2369,12.243 66.5702,6.07633 61.5,-0.5 Z"/></g>
</svg>
