<!--?xml version="1.0" encoding="utf-8"?-->
<!-- Svg Vector Icons : http://www.onlinewebfonts.com/icon -->

<svg version="1.1" xmlns="http://www.w3.org/2000/svg" xmlns:xlink="http://www.w3.org/1999/xlink" x="0px" y="0px" viewBox="0 0 256 256" enable-background="new 0 0 256 256" xml:space="preserve">
<metadata> Svg Vector Icons : http://www.onlinewebfonts.com/icon </metadata>
<g><g><path fill="#fff" data-title="Layer 0" xs="0" d="M242.1,56.6H14.3c-2.4,0-4.3,1.9-4.3,4.7v9.5c0,2.8,1.9,4.7,4.3,4.7h227.4c2.4,0,4.3-1.9,4.3-4.7v-9.5C246.4,59,244.5,56.6,242.1,56.6z"/><path fill="#fff" data-title="Layer 1" xs="1" d="M242.1,118.5H14.3c-2.4,0-4.3,1.9-4.3,4.7v9.5c0,2.8,1.9,4.7,4.3,4.7h227.4c2.4,0,4.3-1.9,4.3-4.7v-9.5C246.4,120.5,244.5,118.5,242.1,118.5z"/><path fill="#fff" data-title="Layer 2" xs="2" d="M242.1,180.5H14.3c-2.4,0-4.3,1.9-4.3,4.7v9.5c0,2.8,1.9,4.7,4.3,4.7h227.4c2.4,0,4.3-1.9,4.3-4.7v-9.5C246.4,182.4,244.5,180.5,242.1,180.5z"/></g></g>
</svg>