<svg xmlns="http://www.w3.org/2000/svg" xmlns:xlink="http://www.w3.org/1999/xlink" width="66" height="66" viewBox="0 0 66 66">
  <defs>
    <clipPath id="clip-ic_about_me">
      <rect width="66" height="66"/>
    </clipPath>
  </defs>
  <g id="ic_about_me" clip-path="url(#clip-ic_about_me)">
    <g id="about_me" transform="translate(-35.199 -1107.199)">
      <rect id="Rectangle_3455" data-name="Rectangle 3455" width="66" height="66" transform="translate(35.199 1107.199)" fill="rgba(255,255,255,0)" opacity="0"/>
      <g id="Icons" transform="translate(32.839 1104.807)">
        <g id="Group_9466" data-name="Group 9466" transform="translate(8.636 8.116)">
          <path id="Path_2927" data-name="Path 2927" d="M40.206,58.315c4.177-2.589,5.962-5.805,4.609-8.217-.98-1.765-2.648-2.589-1.235-7.2.53-1.726,1.717-3.882,3.1-7.021,2.95-6.7,3.058-13.9-1.354-20.937A14.851,14.851,0,0,0,19.7,16.011a17.031,17.031,0,0,0-2.292,9.7,31.873,31.873,0,0,0,.694,5.833c.451,2.073,1.566,3.939,1.383,6.142-.327,3.943-4.04,7.515-7.229,9.481-.137.078,2.567-1.78,2.567-1.78" transform="translate(-5.925 -8.116)" fill="none"/>
          <path id="Path_2931" data-name="Path 2931" d="M30.465,31.466c-3.8,1.729-9.871.273-9.871-4.348" transform="translate(0.318 6.111)" fill="none" stroke="#3f4953" stroke-linecap="round" stroke-linejoin="round" stroke-miterlimit="10" stroke-width="2.5"/>
          <path id="Path_2933" data-name="Path 2933" d="M29.719,26.055l-.157,1.961-2.471.726-3.8,1.118h-.02l-2.353.686a16.67,16.67,0,0,0-3.158,1.294c-.137.079-.216.118-.216.118a14.387,14.387,0,0,0-6.59,7.433L8.636,45.51s25.751,10.61,53.737.039l-2.314-6.119A14.965,14.965,0,0,0,50.1,30.586l-3.8-1.118" transform="translate(-8.636 5.316)" fill="none" stroke="#3f4953" stroke-linecap="round" stroke-linejoin="round" stroke-miterlimit="10" stroke-width="2.5"/>
          <path id="Path_2934" data-name="Path 2934" d="M34.881,27.367c-3.513,4.353-12.832,5.019-16.724-4.9" transform="translate(-1.506 2.629)" fill="none" stroke="#3f4953" stroke-linecap="round" stroke-linejoin="round" stroke-miterlimit="10" stroke-width="2.5"/>
          <path id="Path_2935" data-name="Path 2935" d="M35.86,54.934c.373-.353,4.06-4.119,1.589-6.119-2.589-2.1-8.276-7.217-3.51-12.826,2.643-2.866,4.452-7.786,2.746-10.63-.824-1.373-6.845-4.472-8.218-5.668-2-1.726-4.864-4.275-5.236-7.06a5.687,5.687,0,0,1-.275,2.432c-1.654,5.4-5.773,8.11-4.726,14.768.68,3.952,2.306,4.877,1.8,8.963" transform="translate(-1.578 -4.736)" fill="none" stroke="#3f4953" stroke-linecap="round" stroke-linejoin="round" stroke-miterlimit="10" stroke-width="2.5"/>
          <path id="Path_2936" data-name="Path 2936" d="M40.206,58.315c4.177-2.589,5.962-5.805,4.609-8.217-.98-1.765-2.648-2.589-1.235-7.2.53-1.726,1.717-3.882,3.1-7.021,2.95-6.7,3.058-13.9-1.354-20.937A14.851,14.851,0,0,0,19.7,16.011a17.031,17.031,0,0,0-2.292,9.7,31.873,31.873,0,0,0,.694,5.833c.451,2.073,1.566,3.939,1.383,6.142-.327,3.943-4.04,7.515-7.229,9.481-.137.078,2.567-1.78,2.567-1.78" transform="translate(-5.925 -8.116)" fill="none" stroke="#3f4953" stroke-linecap="round" stroke-linejoin="round" stroke-miterlimit="10" stroke-width="2.5"/>
          <path id="Path_2937" data-name="Path 2937" d="M28.566,19.727s6.059,4.393,3.387,12.924" transform="translate(6.287 0.578)" fill="none" stroke="#3f4953" stroke-linecap="round" stroke-linejoin="round" stroke-miterlimit="10" stroke-width="2.5"/>
        </g>
      </g>
    </g>
  </g>
</svg>
