<svg xmlns="http://www.w3.org/2000/svg" xmlns:xlink="http://www.w3.org/1999/xlink" width="66" height="66" viewBox="0 0 66 66">
  <defs>
    <clipPath id="clip-ic_blogs">
      <rect width="66" height="66"/>
    </clipPath>
  </defs>
  <g id="ic_blogs" clip-path="url(#clip-ic_blogs)">
    <g id="blogs" transform="translate(-38.097 -504.097)">
      <rect id="Rectangle_3451" data-name="Rectangle 3451" width="66" height="66" transform="translate(38.097 504.097)" fill="rgba(255,255,255,0)" opacity="0"/>
      <g id="notebook_1_" data-name="notebook(1)" transform="translate(41.999 507.998)">
        <path id="Path_1746" data-name="Path 1746" d="M13.605,41.733a1.829,1.829,0,0,1-1.8-2.146L13.1,32.259a1.835,1.835,0,0,1,.507-.975L31.713,13.176a4.885,4.885,0,0,1,2.429-1.427,3.4,3.4,0,0,1,3.175.995l3.017,3.017a4.274,4.274,0,0,1,0,6.036L22.229,39.9a1.836,1.836,0,0,1-.975.507L13.925,41.7a1.769,1.769,0,0,1-.319.029Zm7.331-3.122h.024ZM16.6,33.461l-.739,4.187,4.187-.739,17.7-17.7a.614.614,0,0,0,0-.863l-2.995-2.995c-.024.046-.207.161-.454.407Z" transform="translate(16.944 16.796)" fill="#3f4953"/>
        <path id="Path_1747" data-name="Path 1747" d="M24.412,48.336H6.706A6.712,6.712,0,0,1,0,41.629V8.706A6.712,6.712,0,0,1,6.706,2H34.752a6.712,6.712,0,0,1,6.706,6.706V28.363a1.829,1.829,0,1,1-3.658,0V8.706a3.053,3.053,0,0,0-3.048-3.048H6.706A3.053,3.053,0,0,0,3.658,8.706V41.629a3.053,3.053,0,0,0,3.048,3.048H24.412a1.829,1.829,0,1,1,0,3.658Z" transform="translate(0 2.877)" fill="#3f4953"/>
        <path id="Path_1748" data-name="Path 1748" d="M4.829,12.194A1.83,1.83,0,0,1,3,10.365V1.829a1.829,1.829,0,0,1,3.658,0v8.536A1.83,1.83,0,0,1,4.829,12.194Z" transform="translate(4.316)" fill="#3f4953"/>
        <path id="Path_1749" data-name="Path 1749" d="M9.579,12.194A1.83,1.83,0,0,1,7.75,10.365V1.829a1.829,1.829,0,1,1,3.658,0v8.536A1.83,1.83,0,0,1,9.579,12.194Z" transform="translate(11.15)" fill="#3f4953"/>
        <path id="Path_1750" data-name="Path 1750" d="M14.329,12.194A1.83,1.83,0,0,1,12.5,10.365V1.829a1.829,1.829,0,1,1,3.658,0v8.536A1.83,1.83,0,0,1,14.329,12.194Z" transform="translate(17.984)" fill="#3f4953"/>
        <path id="Path_1751" data-name="Path 1751" d="M23.119,15.658H4.829a1.829,1.829,0,1,1,0-3.658h18.29a1.829,1.829,0,0,1,0,3.658Z" transform="translate(4.316 17.265)" fill="#3f4953"/>
        <path id="Path_1752" data-name="Path 1752" d="M15.8,11.658H4.829A1.829,1.829,0,1,1,4.829,8H15.8a1.829,1.829,0,1,1,0,3.658Z" transform="translate(4.316 11.51)" fill="#3f4953"/>
      </g>
    </g>
  </g>
</svg>
