<svg xmlns="http://www.w3.org/2000/svg" xmlns:xlink="http://www.w3.org/1999/xlink" width="70" height="70" viewBox="0 0 70 70">
  <defs>
    <clipPath id="clip-ic_city">
      <rect width="70" height="70"/>
    </clipPath>
  </defs>
  <g id="ic_city" clip-path="url(#clip-ic_city)">
    <g id="city" transform="translate(-177 -1090)" opacity="0.5">
      <rect id="Rectangle_1880" data-name="Rectangle 1880" width="70" height="70" transform="translate(177 1090)" fill="rgba(255,255,255,0)" opacity="0"/>
      <g id="place" transform="translate(136.398 1091.837)">
        <g id="Group_9431" data-name="Group 9431" transform="translate(48.886)">
          <g id="Group_9430" data-name="Group 9430" transform="translate(0)">
            <path id="Path_2910" data-name="Path 2910" d="M97.732,11.532a26.78,26.78,0,0,0-44.03,0A26.784,26.784,0,0,0,50.583,36.21a21.094,21.094,0,0,0,3.888,6.418L73.951,65.51a2.317,2.317,0,0,0,3.531,0L96.957,42.634a21.114,21.114,0,0,0,3.887-6.41A26.789,26.789,0,0,0,97.732,11.532ZM96.5,34.6a16.543,16.543,0,0,1-3.059,5.011.083.083,0,0,0-.011.012L75.717,60.43,57.991,39.61a16.553,16.553,0,0,1-3.064-5.026,22.155,22.155,0,0,1,2.59-20.415,22.142,22.142,0,0,1,36.4,0A22.159,22.159,0,0,1,96.5,34.6Z" transform="translate(-48.886 0)" fill="#727c8e"/>
          </g>
        </g>
        <g id="Group_9433" data-name="Group 9433" transform="translate(62.73 13.76)">
          <g id="Group_9432" data-name="Group 9432">
            <path id="Path_2911" data-name="Path 2911" d="M168.741,106.219a12.987,12.987,0,1,0,12.987,12.987A13,13,0,0,0,168.741,106.219Zm0,21.336a8.349,8.349,0,1,1,8.349-8.349A8.358,8.358,0,0,1,168.741,127.555Z" transform="translate(-155.754 -106.219)" fill="#727c8e"/>
          </g>
        </g>
      </g>
    </g>
  </g>
</svg>
