<?xml version="1.0" encoding="UTF-8"?>
<!DOCTYPE svg PUBLIC "-//W3C//DTD SVG 1.1//EN" "http://www.w3.org/Graphics/SVG/1.1/DTD/svg11.dtd">
<svg xmlns="http://www.w3.org/2000/svg" version="1.1" width="81px" height="81px" style="shape-rendering:geometricPrecision; text-rendering:geometricPrecision; image-rendering:optimizeQuality; fill-rule:evenodd; clip-rule:evenodd" xmlns:xlink="http://www.w3.org/1999/xlink">
<g><path style="opacity:0.829" fill="#b3b8c2" d="M 49.5,1.5 C 52.5552,2.24648 54.2219,4.24648 54.5,7.5C 54.0772,10.1084 53.0772,12.4417 51.5,14.5C 53.527,18.9561 52.3604,20.6228 48,19.5C 46.0605,15.4471 46.2272,11.4471 48.5,7.5C 46.9983,5.17757 47.3317,3.17757 49.5,1.5 Z"/></g>
<g><path style="opacity:0.888" fill="#b3b9c2" d="M 28.5,1.5 C 31.6096,2.27781 33.2763,4.27781 33.5,7.5C 33.1253,9.91623 32.4587,12.2496 31.5,14.5C 33.6025,19.2941 32.2692,20.9608 27.5,19.5C 24.7982,15.4503 25.1315,11.6169 28.5,8C 27.232,5.83683 27.232,3.67016 28.5,1.5 Z"/></g>
<g><path style="opacity:0.878" fill="#b3b9c2" d="M 38.5,1.5 C 42.1925,2.03401 43.8592,4.20068 43.5,8C 43.5175,10.3788 42.8509,12.5455 41.5,14.5C 43.3689,20.1397 41.8689,21.473 37,18.5C 36.8333,17.1667 36.6667,15.8333 36.5,14.5C 38.4663,10.3009 39.133,5.9676 38.5,1.5 Z"/></g>
<g><path style="opacity:0.884" fill="#b3b8c2" d="M 66.5,13.5 C 76.2634,12.575 79.5967,16.575 76.5,25.5C 74.8208,26.782 72.9874,27.782 71,28.5C 70.5065,30.1341 70.3398,31.8008 70.5,33.5C 72.8568,33.3367 75.1902,33.5034 77.5,34C 76.6261,48.9098 69.2928,59.5765 55.5,66C 57.6271,69.8844 58.6271,74.0511 58.5,78.5C 46.1667,78.5 33.8333,78.5 21.5,78.5C 21.4111,74.7002 22.0778,71.0336 23.5,67.5C 18.9876,63.6368 14.4876,59.6368 10,55.5C 5.15392,49.2904 2.48725,42.2904 2,34.5C 19.7691,33.8396 37.6025,33.173 55.5,32.5C 56.7293,28.1881 57.896,23.8548 59,19.5C 61.1337,16.8474 63.6337,14.8474 66.5,13.5 Z M 69.5,18.5 C 71.5323,19.0478 72.5323,20.3812 72.5,22.5C 70.5328,22.2606 68.6995,22.5939 67,23.5C 65.8497,26.7679 65.0164,30.1012 64.5,33.5C 63.5,33.5 62.5,33.5 61.5,33.5C 61.7392,29.3025 62.7392,25.3025 64.5,21.5C 66.1446,20.3037 67.8113,19.3037 69.5,18.5 Z M 7.5,39.5 C 28.9961,38.3372 50.6628,38.1705 72.5,39C 72.0426,39.414 71.7093,39.914 71.5,40.5C 61,40.8333 50.5,41.1667 40,41.5C 28.9406,41.4772 18.1073,40.8106 7.5,39.5 Z M 11.5,48.5 C 30.3289,47.3377 49.3289,47.1711 68.5,48C 56.1908,64.4702 40.8575,68.1369 22.5,59C 18.3053,55.9702 14.6387,52.4702 11.5,48.5 Z M 28.5,68.5 C 36.1667,69.8333 43.8333,69.8333 51.5,68.5C 51.4208,69.9305 51.7542,71.2638 52.5,72.5C 44.1667,73.8333 35.8333,73.8333 27.5,72.5C 28.2458,71.2638 28.5792,69.9305 28.5,68.5 Z"/></g>
</svg>
