<svg xmlns="http://www.w3.org/2000/svg" xmlns:xlink="http://www.w3.org/1999/xlink" width="66" height="66" viewBox="0 0 66 66">
  <defs>
    <clipPath id="clip-path">
      <rect id="Rectangle_3530" data-name="Rectangle 3530" width="76" height="76" fill="#fff" stroke="#707070" stroke-width="1"/>
    </clipPath>
    <clipPath id="clip-ic_faq">
      <rect width="66" height="66"/>
    </clipPath>
  </defs>
  <g id="ic_faq" clip-path="url(#clip-ic_faq)">
    <g id="Component_6_2" data-name="Component 6 – 2" transform="translate(-5 -5)">
      <g id="Mask_Group_54" data-name="Mask Group 54" clip-path="url(#clip-path)">
        <g id="_617c0025e2bfe094d2da43b65535f6a9" data-name="617c0025e2bfe094d2da43b65535f6a9" transform="translate(6.609 6.608)">
          <g id="Group_9497" data-name="Group 9497" transform="translate(0 0)">
            <path id="Path_2966" data-name="Path 2966" d="M35.227-500.577a32.541,32.541,0,0,0-12.821,5.7,32.163,32.163,0,0,0-12.058,19.865,40.867,40.867,0,0,0,.024,10.824,31.613,31.613,0,0,0,16.267,22.553A30.357,30.357,0,0,0,59-444.271a31.892,31.892,0,0,0,6.5-44,30.838,30.838,0,0,0-19.465-12.306A39.911,39.911,0,0,0,35.227-500.577Zm9.967,3.767A26.312,26.312,0,0,1,60.057-488.8a27.82,27.82,0,0,1-5.512,42.92,26.471,26.471,0,0,1-32.631-3.994,27.041,27.041,0,0,1-7.851-15.169,28.792,28.792,0,0,1,2.51-16.978A27.124,27.124,0,0,1,45.194-496.81Z" transform="translate(-10 500.945)" fill="#3f4953"/>
            <path id="Path_2967" data-name="Path 2967" d="M334.483-296.975a8.88,8.88,0,0,0-5.611,4.144,9.087,9.087,0,0,0-.885,4.027c.093.256.722.326,2.77.326h2.654l.14-.932c.256-1.956,1.77-3.05,4.354-3.212,3-.163,4.772,1.559,4.749,4.656-.023,2.352-.815,3.725-3.7,6.589-3.562,3.539-3.818,3.981-4.19,7.148l-.14,1.35h2.77c3.073,0,3.073,0,3.073-1.537,0-1.42.582-2.305,3.306-5.005,2.049-2.049,2.84-3,3.4-4.167,2.887-5.913.093-12.176-5.96-13.48A20.336,20.336,0,0,0,334.483-296.975Z" transform="translate(-307.4 311.039)" fill="#3f4953"/>
            <path id="Path_2968" data-name="Path 2968" d="M440.83,187.147v2.678h5.821V184.47H440.83Z" transform="translate(-413.62 -140.23)" fill="#3f4953"/>
          </g>
        </g>
      </g>
    </g>
  </g>
</svg>
