<svg xmlns="http://www.w3.org/2000/svg" xmlns:xlink="http://www.w3.org/1999/xlink" width="66" height="66" viewBox="0 0 66 66">
  <defs>
    <clipPath id="clip-ic_filter">
      <rect width="66" height="66"/>
    </clipPath>
  </defs>
  <g id="ic_filter" clip-path="url(#clip-ic_filter)">
    <path id="filter_white" d="M-299.048-932.675v-21.7a7.419,7.419,0,0,1-4.072-2.538,7.266,7.266,0,0,1-1.625-4.569,7.268,7.268,0,0,1,1.625-4.569,7.412,7.412,0,0,1,4.072-2.537v-20.736A1.678,1.678,0,0,1-297.372-991a1.677,1.677,0,0,1,1.675,1.675v20.735a7.424,7.424,0,0,1,4.073,2.538A7.274,7.274,0,0,1-290-961.483a7.271,7.271,0,0,1-1.624,4.569,7.414,7.414,0,0,1-4.073,2.538v21.7A1.677,1.677,0,0,1-297.372-931,1.678,1.678,0,0,1-299.048-932.675Zm-2.68-28.807a4.339,4.339,0,0,0,4.356,4.312,4.339,4.339,0,0,0,4.356-4.312,4.339,4.339,0,0,0-4.356-4.311A4.339,4.339,0,0,0-301.728-961.483Zm-22.116,28.807v-11.117a7.415,7.415,0,0,1-4.072-2.539,7.266,7.266,0,0,1-1.625-4.568,7.266,7.266,0,0,1,1.625-4.569,7.409,7.409,0,0,1,4.072-2.538v-31.318A1.678,1.678,0,0,1-322.168-991a1.676,1.676,0,0,1,1.675,1.675v31.317a7.415,7.415,0,0,1,4.073,2.539A7.265,7.265,0,0,1-314.8-950.9a7.269,7.269,0,0,1-1.624,4.569,7.414,7.414,0,0,1-4.073,2.538v11.117A1.676,1.676,0,0,1-322.168-931,1.678,1.678,0,0,1-323.843-932.675Zm-2.68-18.224a4.339,4.339,0,0,0,4.356,4.311,4.339,4.339,0,0,0,4.356-4.311,4.339,4.339,0,0,0-4.356-4.312A4.339,4.339,0,0,0-326.524-950.9Zm-21.78,18.224v-34.966a7.418,7.418,0,0,1-4.072-2.539A7.27,7.27,0,0,1-354-974.749a7.271,7.271,0,0,1,1.624-4.569,7.416,7.416,0,0,1,4.072-2.538v-7.469A1.677,1.677,0,0,1-346.628-991a1.677,1.677,0,0,1,1.675,1.675v7.469a7.408,7.408,0,0,1,4.072,2.538,7.266,7.266,0,0,1,1.625,4.569,7.27,7.27,0,0,1-1.625,4.569,7.409,7.409,0,0,1-4.072,2.538v34.966A1.677,1.677,0,0,1-346.628-931,1.677,1.677,0,0,1-348.3-932.675Zm-2.68-42.073a4.339,4.339,0,0,0,4.356,4.312,4.339,4.339,0,0,0,4.356-4.312,4.339,4.339,0,0,0-4.356-4.312A4.339,4.339,0,0,0-350.984-974.749Z" transform="translate(355 994)" fill="#3f4953"/>
  </g>
</svg>
