<svg xmlns="http://www.w3.org/2000/svg" xmlns:xlink="http://www.w3.org/1999/xlink" width="177" height="177" viewBox="0 0 177 177">
  <defs>
    <clipPath id="clip-ic_gluten_free_home">
      <rect width="177" height="177"/>
    </clipPath>
  </defs>
  <g id="ic_gluten_free_home" clip-path="url(#clip-ic_gluten_free_home)">
    <g id="gluten_free" opacity="0.18">
      <path id="Path_2851" data-name="Path 2851" d="M219.13,62.949c14.743-18.187,38.4-18.7,38.719-18.7V88.5a67.224,67.224,0,0,0-17.621,3.165l9.039,9.039a49.979,49.979,0,0,1,8.581-1.141,43.788,43.788,0,0,1-.933,8.789l8.847,8.847a54.6,54.6,0,0,0,3.149-17.636V16.594a5.531,5.531,0,1,0-11.063,0V33.188c-1.032,0-21.473.329-38.719,14.209V5.531a5.531,5.531,0,0,0-11.063,0V47.4a64.693,64.693,0,0,0-24-11.889L219.13,70.567Z" transform="translate(-125.099 0)"/>
      <path id="Path_2852" data-name="Path 2852" d="M119.784,40.061a5.528,5.528,0,0,0-5.531-5.531,5.391,5.391,0,0,0-3.112,1.08l8.643,8.643S119.784,40.061,119.784,40.061Z" transform="translate(-75.533 -23.467)"/>
      <path id="Path_2853" data-name="Path 2853" d="M177,169.18,7.821,0,0,7.822,33.187,41.01V99.563a55.2,55.2,0,0,0,49.781,54.753V177H94.031V154.539a54.937,54.937,0,0,0,34.99-17.7L169.178,177,177,169.179ZM82.969,90.791v11.919C65.723,88.831,45.283,88.5,44.25,88.5V52.073ZM44.25,99.564c.325,0,23.977.513,38.719,18.7v24.992A44.163,44.163,0,0,1,44.25,99.564Zm49.781,43.69V118.263a44.311,44.311,0,0,1,8.527-7.882l18.471,18.471A43.869,43.869,0,0,1,94.032,143.255Z" transform="translate(0 -0.001)"/>
    </g>
  </g>
</svg>
