<svg xmlns="http://www.w3.org/2000/svg" xmlns:xlink="http://www.w3.org/1999/xlink" width="177" height="177" viewBox="0 0 177 177">
  <defs>
    <clipPath id="clip-ic_grocery_store_home">
      <rect width="177" height="177"/>
    </clipPath>
  </defs>
  <g id="ic_grocery_store_home" clip-path="url(#clip-ic_grocery_store_home)">
    <path id="grocery_store" d="M167.07,77.693H149.184L124.289,30.671a5.2,5.2,0,0,0-9.188,4.865l22.319,42.158H39.549L61.868,35.535a5.2,5.2,0,0,0-9.188-4.865l-24.9,47.022H9.93A9.941,9.941,0,0,0,0,87.623V99.171a9.941,9.941,0,0,0,9.245,9.9l17.44,72.506a5.2,5.2,0,0,0,5.054,3.983H145.226a5.2,5.2,0,0,0,5.054-3.98l17.48-72.509a9.941,9.941,0,0,0,9.239-9.9V87.623A9.941,9.941,0,0,0,167.07,77.693ZM10.4,88.09H166.6V98.7H10.4Zm139.956,48.828h-22.76l3.473-27.818h25.993ZM93.705,175.166V147.315h22.112l-3.477,27.851Zm-29.033,0-3.48-27.851H83.309v27.851ZM19.945,109.1H45.939l3.476,27.818H26.636Zm36.472,0H83.309v27.818H59.893Zm37.289,27.818V109.1h26.884l-3.473,27.818Zm-64.569,10.4H50.715l3.48,27.851H35.835Zm112,27.851H122.818l3.477-27.851h21.551Z" transform="translate(0 -18.233)" opacity="0.18"/>
  </g>
</svg>
