<?xml version="1.0" standalone="no"?>
<!DOCTYPE svg PUBLIC "-//W3C//DTD SVG 20010904//EN"
 "http://www.w3.org/TR/2001/REC-SVG-20010904/DTD/svg10.dtd">
<svg version="1.0" xmlns="http://www.w3.org/2000/svg"
 width="46.000000pt" height="37.000000pt" viewBox="0 0 46.000000 37.000000"
 preserveAspectRatio="xMidYMid meet">

<g transform="translate(0.000000,37.000000) scale(0.100000,-0.100000)"
fill="#000000" stroke="none">
<path d="M5 359 c-16 -25 19 -29 226 -27 182 3 214 5 214 18 0 13 -32 15 -217
18 -150 2 -219 -1 -223 -9z"/>
<path d="M7 204 c-4 -4 -7 -13 -7 -21 0 -10 44 -13 226 -13 209 0 225 1 222
18 -3 15 -23 17 -219 20 -118 1 -218 -1 -222 -4z"/>
<path d="M0 25 c0 -13 32 -15 225 -15 193 0 225 2 225 15 0 13 -32 15 -225 15
-193 0 -225 -2 -225 -15z"/>
</g>
</svg>
