<svg xmlns="http://www.w3.org/2000/svg" xmlns:xlink="http://www.w3.org/1999/xlink" width="41" height="41" viewBox="0 0 41 41">
  <defs>
    <clipPath id="clip-ic_maps">
      <rect width="41" height="41"/>
    </clipPath>
  </defs>
  <g id="ic_maps" clip-path="url(#clip-ic_maps)">
    <path id="map_view" d="M39.407.253a1.207,1.207,0,0,0-.962-.137l-13.6,5.908L13.44,1.077a.876.876,0,0,0-.824,0L1.35,6.3A.92.92,0,0,0,.8,7.26V40.1a.753.753,0,0,0,.55.824.826.826,0,0,0,.55.137.5.5,0,0,0,.412-.137l10.854-5.358,11.266,5.221a.876.876,0,0,0,.824,0h.137L39.27,35.013a1.033,1.033,0,0,0,.687-.962V1.077A2.874,2.874,0,0,0,39.407.253ZM11.791,33.914,2.724,38.448V7.947l9.068-4.122Zm12.091,4.4-10.03-4.534V3.55l10.03,4.4Zm13.877-5.084L25.943,38.173V7.809L37.759,2.726Z" transform="translate(0.2 -0.059)" fill="#3f4953"/>
  </g>
</svg>
