<svg xmlns="http://www.w3.org/2000/svg" xmlns:xlink="http://www.w3.org/1999/xlink" width="70" height="70" viewBox="0 0 70 70">
  <defs>
    <clipPath id="clip-ic_phone">
      <rect width="70" height="70"/>
    </clipPath>
  </defs>
  <g id="ic_phone" clip-path="url(#clip-ic_phone)">
    <g id="phone" transform="translate(-186 -1124)">
      <rect id="Rectangle_3466" data-name="Rectangle 3466" width="70" height="70" transform="translate(186 1124)" fill="rgba(255,255,255,0)" opacity="0"/>
      <g id="phone-call_2_" data-name="phone-call(2)" transform="translate(191.655 1102.594)" opacity="0.5">
        <g id="Group_2206" data-name="Group 2206" transform="translate(0.344 27.406)">
          <path id="Path_1744" data-name="Path 1744" d="M48.774,61.854A6.033,6.033,0,0,0,44.4,59.847a6.238,6.238,0,0,0-4.427,1.994l-4.091,4.078c-.337-.181-.673-.35-1-.518-.466-.233-.906-.453-1.282-.686a44.461,44.461,0,0,1-10.654-9.709,26.23,26.23,0,0,1-3.5-5.515c1.062-.971,2.045-1.981,3-2.952.362-.362.725-.738,1.087-1.1a5.939,5.939,0,0,0,0-8.958L20.01,32.947c-.4-.4-.816-.816-1.2-1.23-.777-.8-1.592-1.631-2.434-2.408a6.128,6.128,0,0,0-4.337-1.9,6.341,6.341,0,0,0-4.4,1.9l-.026.026-4.4,4.44A9.471,9.471,0,0,0,.4,39.795,22.693,22.693,0,0,0,2.055,49.4a55.739,55.739,0,0,0,9.9,16.518A60.919,60.919,0,0,0,32.243,81.8a31.606,31.606,0,0,0,11.392,3.366c.272.013.557.026.816.026a9.755,9.755,0,0,0,7.469-3.21c.013-.026.039-.039.052-.065a29.429,29.429,0,0,1,2.265-2.343c.557-.531,1.126-1.087,1.683-1.67a6.458,6.458,0,0,0,1.955-4.479,6.221,6.221,0,0,0-1.994-4.44Zm4.634,13.631c-.013,0-.013.013,0,0-.5.544-1.023,1.036-1.579,1.579a34.034,34.034,0,0,0-2.5,2.589,6.241,6.241,0,0,1-4.867,2.058c-.194,0-.4,0-.6-.013a28.078,28.078,0,0,1-10.1-3.029A57.5,57.5,0,0,1,14.663,63.7,52.555,52.555,0,0,1,5.343,48.183a18.484,18.484,0,0,1-1.45-8.1,5.943,5.943,0,0,1,1.786-3.845l4.414-4.414a2.943,2.943,0,0,1,1.968-.919,2.769,2.769,0,0,1,1.89.906l.039.039c.79.738,1.54,1.5,2.33,2.317.4.414.816.828,1.23,1.256l3.534,3.534c1.372,1.372,1.372,2.641,0,4.013-.375.375-.738.751-1.113,1.113-1.087,1.113-2.123,2.149-3.249,3.159-.026.026-.052.039-.065.065a2.64,2.64,0,0,0-.673,2.939l.039.117A28.373,28.373,0,0,0,20.2,57.18l.013.013a47.514,47.514,0,0,0,11.5,10.46,17.674,17.674,0,0,0,1.592.867c.466.233.906.453,1.282.686.052.026.1.065.155.091a2.806,2.806,0,0,0,1.282.324,2.768,2.768,0,0,0,1.968-.893L42.418,64.3a2.929,2.929,0,0,1,1.955-.971,2.636,2.636,0,0,1,1.864.945l.026.026L53.4,71.433A2.56,2.56,0,0,1,53.409,75.485Z" transform="translate(-0.344 -27.406)" fill="#727c8e" stroke="#727c8e" stroke-width="0.5"/>
        </g>
      </g>
    </g>
  </g>
</svg>
