<svg xmlns="http://www.w3.org/2000/svg" xmlns:xlink="http://www.w3.org/1999/xlink" width="70" height="70" viewBox="0 0 70 70">
  <defs>
    <clipPath id="clip-ic_password">
      <rect width="70" height="70"/>
    </clipPath>
  </defs>
  <g id="ic_password" clip-path="url(#clip-ic_password)">
    <g id="password" transform="translate(-177 -1090)" opacity="0.5">
      <rect id="Rectangle_1880" data-name="Rectangle 1880" width="70" height="70" transform="translate(177 1090)" fill="rgba(255,255,255,0)" opacity="0"/>
      <g id="_002-password" data-name="002-password" transform="translate(183.111 1091.837)">
        <g id="Group_118" data-name="Group 118">
          <g id="Group_117" data-name="Group 117">
            <circle id="Ellipse_18" data-name="Ellipse 18" cx="2.701" cy="2.701" r="2.701" transform="translate(40.893 41.947)" fill="#727c8e"/>
            <path id="Path_66" data-name="Path 66" d="M87.285,46.76a2.583,2.583,0,0,0,2.583-2.583V34.618A10.345,10.345,0,0,0,79.535,24.284h-3.1V15.173a15.5,15.5,0,0,0-31,0v9.111h-3.1A10.345,10.345,0,0,0,32,34.618V55.8A10.345,10.345,0,0,0,42.334,66.135h37.2A10.345,10.345,0,0,0,89.868,55.8a2.583,2.583,0,1,0-5.167,0,5.173,5.173,0,0,1-5.167,5.167h-37.2A5.173,5.173,0,0,1,37.167,55.8V34.618a5.173,5.173,0,0,1,5.167-5.167h37.2A5.173,5.173,0,0,1,84.7,34.618v9.559A2.583,2.583,0,0,0,87.285,46.76ZM71.263,24.284H50.6V15.173a10.339,10.339,0,0,1,20.667,0Z" transform="translate(-32)" fill="#727c8e"/>
            <circle id="Ellipse_19" data-name="Ellipse 19" cx="2.701" cy="2.701" r="2.701" transform="translate(21.475 41.947)" fill="#727c8e"/>
            <circle id="Ellipse_20" data-name="Ellipse 20" cx="2.701" cy="2.701" r="2.701" transform="translate(11.831 41.947)" fill="#727c8e"/>
            <circle id="Ellipse_21" data-name="Ellipse 21" cx="2.701" cy="2.701" r="2.701" transform="translate(31.12 41.947)" fill="#727c8e"/>
          </g>
        </g>
      </g>
    </g>
  </g>
</svg>
