<svg xmlns="http://www.w3.org/2000/svg" xmlns:xlink="http://www.w3.org/1999/xlink" width="53" height="53" viewBox="0 0 53 53">
  <defs>
    <clipPath id="clip-ic_profile_selected">
      <rect width="53" height="53"/>
    </clipPath>
  </defs>
  <g id="ic_profile_selected" clip-path="url(#clip-ic_profile_selected)">
    <g id="user" transform="translate(5 1)">
      <path id="Path_2856" data-name="Path 2856" d="M99.476,24.888a12.041,12.041,0,0,0,8.8-3.646,12.04,12.04,0,0,0,3.645-8.8,12.042,12.042,0,0,0-3.646-8.8,12.441,12.441,0,0,0-17.6,0,12.041,12.041,0,0,0-3.646,8.8,12.04,12.04,0,0,0,3.646,8.8A12.044,12.044,0,0,0,99.476,24.888Zm0,0" transform="translate(-78.249 0)" fill="#c52c7f"/>
      <path id="Path_2857" data-name="Path 2857" d="M43,262.088a30.736,30.736,0,0,0-.419-3.265,25.722,25.722,0,0,0-.8-3.282,16.212,16.212,0,0,0-1.349-3.061,11.552,11.552,0,0,0-2.035-2.652,8.972,8.972,0,0,0-2.923-1.836,10.1,10.1,0,0,0-3.731-.675,3.787,3.787,0,0,0-2.023.858c-.606.4-1.315.853-2.107,1.358a12.072,12.072,0,0,1-2.726,1.2,10.586,10.586,0,0,1-6.669,0,12.045,12.045,0,0,1-2.724-1.2c-.784-.5-1.494-.958-2.109-1.359a3.782,3.782,0,0,0-2.022-.858,10.089,10.089,0,0,0-3.731.676,8.963,8.963,0,0,0-2.923,1.836,11.553,11.553,0,0,0-2.034,2.651,16.244,16.244,0,0,0-1.349,3.062,25.784,25.784,0,0,0-.8,3.282A30.629,30.629,0,0,0,.1,262.089c-.069.989-.1,2.015-.1,3.051a8.579,8.579,0,0,0,2.548,6.491,9.172,9.172,0,0,0,6.566,2.4H33.991a9.17,9.17,0,0,0,6.565-2.4,8.575,8.575,0,0,0,2.548-6.491c0-1.041-.035-2.068-.1-3.052Zm0,0" transform="translate(0 -222.359)" fill="#c52c7f"/>
    </g>
  </g>
</svg>
