<svg xmlns="http://www.w3.org/2000/svg" xmlns:xlink="http://www.w3.org/1999/xlink" width="66" height="66" viewBox="0 0 66 66">
  <defs>
    <clipPath id="clip-ic_password_drawer">
      <rect width="66" height="66"/>
    </clipPath>
  </defs>
  <g id="ic_password_drawer" clip-path="url(#clip-ic_password_drawer)">
    <g id="password" transform="translate(-35.199 -1107.199)">
      <rect id="Rectangle_3455" data-name="Rectangle 3455" width="66" height="66" transform="translate(35.199 1107.199)" fill="rgba(255,255,255,0)" opacity="0"/>
      <g id="password-2" data-name="password" transform="translate(45.248 1112.264)">
        <path id="Path_2886" data-name="Path 2886" d="M39.665,43.919H8.238A5.244,5.244,0,0,1,3,38.681V14.238A5.244,5.244,0,0,1,8.238,9H39.665A5.244,5.244,0,0,1,44.9,14.238V38.681A5.244,5.244,0,0,1,39.665,43.919ZM8.238,12.492a1.748,1.748,0,0,0-1.746,1.746V38.681a1.748,1.748,0,0,0,1.746,1.746H39.665a1.748,1.748,0,0,0,1.746-1.746V14.238a1.748,1.748,0,0,0-1.746-1.746Z" transform="translate(0 11.951)" fill="#3f4953"/>
        <path id="Path_2887" data-name="Path 2887" d="M32.189,24.443A1.747,1.747,0,0,1,30.443,22.7v-8.73a10.476,10.476,0,0,0-20.951,0V22.7A1.746,1.746,0,1,1,6,22.7v-8.73a13.968,13.968,0,0,1,27.935,0V22.7A1.747,1.747,0,0,1,32.189,24.443Z" transform="translate(3.984)" fill="#3f4953"/>
        <path id="Path_2888" data-name="Path 2888" d="M14.656,22.312a4.656,4.656,0,1,1,4.656-4.656A4.661,4.661,0,0,1,14.656,22.312Zm0-5.82a1.164,1.164,0,1,0,1.164,1.164A1.166,1.166,0,0,0,14.656,16.492Z" transform="translate(9.295 17.263)" fill="#3f4953"/>
        <path id="Path_2889" data-name="Path 2889" d="M13,25.644A1.747,1.747,0,0,1,11.25,23.9V17.5a1.746,1.746,0,0,1,3.492,0v6.4A1.747,1.747,0,0,1,13,25.644Z" transform="translate(10.955 20.915)" fill="#3f4953"/>
      </g>
    </g>
  </g>
</svg>
