<svg xmlns="http://www.w3.org/2000/svg" xmlns:xlink="http://www.w3.org/1999/xlink" width="66" height="66" viewBox="0 0 66 66">
  <defs>
    <clipPath id="clip-path">
      <rect id="Rectangle_3543" data-name="Rectangle 3543" width="69" height="69" transform="translate(-431.008 1778.992)" fill="#fff" stroke="#707070" stroke-width="0.5"/>
    </clipPath>
    <clipPath id="clip-ic_receipe_more">
      <rect width="66" height="66"/>
    </clipPath>
  </defs>
  <g id="ic_receipe_more" clip-path="url(#clip-ic_receipe_more)">
    <g id="Mask_Group_67" data-name="Mask Group 67" transform="translate(430.008 -1780.992)" clip-path="url(#clip-path)">
      <g id="Group_9516" data-name="Group 9516" transform="translate(-420.106 1782.634)">
        <g id="Group_9515" data-name="Group 9515" transform="translate(0)">
          <path id="Path_2975" data-name="Path 2975" d="M46.584-498.609a5.123,5.123,0,0,0-.984.559c-.955.719-1.07,1.011-3.888,9.331-1.433,4.26-2.656,7.827-2.722,7.92-.086.146-.3.16-1.108.08-.554-.066-2.015-.146-3.257-.2L32.37-481l-.449-1.916a30.7,30.7,0,0,0-4.27-10c-.65-.945-.783-.932-1.519.186a30.7,30.7,0,0,0-3.248,6.736,8.481,8.481,0,0,1-.554,1.384c-.038-.027-.373-.306-.745-.6a15.33,15.33,0,0,0-8.74-3.354c-.974,0-.946-.04-.946,1.464a36.717,36.717,0,0,0,1.051,7.88,3.079,3.079,0,0,1,.153.892.8.8,0,0,1-.363.2,6.626,6.626,0,0,0-2.4,1.8l-.353.546v1.3a60.284,60.284,0,0,0,2.483,16.319,46.977,46.977,0,0,0,5.894,12.672l.793,1.212v3.793a23.856,23.856,0,0,0,.115,3.94c.134.186,26.02.227,26.239.04.105-.093.134-.866.143-4.02l.01-3.914.946-1.465a54.069,54.069,0,0,0,7.957-26.567,6.5,6.5,0,0,1,.239-2.05,1.554,1.554,0,0,0-.21-1.717c-.821-1.238-2.942-2.329-5.96-3.062-.468-.12-.86-.226-.879-.24s.707-2.888,1.6-6.363c1.8-6.975,1.853-7.335,1.566-8.919C50.395-497.69,48.494-499.354,46.584-498.609Zm2.073,1.411a4.216,4.216,0,0,1,1.576,3.528c.01.786-.2,1.664-2.713,11.434-2.254,8.8-2.741,10.609-2.9,10.649a63.789,63.789,0,0,1-7.6.705l-.334-.039,1.4-4.127c.774-2.276,1.538-4.552,1.691-5.058s1.4-4.286,2.8-8.386c2.207-6.523,2.579-7.534,2.961-8.067a2.129,2.129,0,0,1,1.911-1.038A1.612,1.612,0,0,1,48.656-497.2Zm-20.89,6.243a30.255,30.255,0,0,1,4.165,15.108,9.717,9.717,0,0,1-.535,4.393c-.248.626-.3.665-.688.706a16.215,16.215,0,0,1-1.872-.04l-1.462-.094v-7.441c0-7.215-.01-7.441-.181-7.574-.258-.186-.353-.173-.525.08-.134.186-.153,1.052-.153,7.561v7.348l-.592-.04c-.334-.027-1.156-.106-1.834-.173s-1.309-.133-1.414-.133c-.22,0-.592-1.078-.726-2.143a29.8,29.8,0,0,1,.277-6.243,31.055,31.055,0,0,1,3.419-10.449,8.019,8.019,0,0,1,1.366-2.037A13.107,13.107,0,0,1,27.767-490.954ZM15.76-486.962a16.892,16.892,0,0,1,2.2.812,19.96,19.96,0,0,1,3.868,2.489l.229.253-.2.852a34.009,34.009,0,0,0-.688,4.047c-.057.586-.134,1.212-.153,1.384-.048.293-.3-.013-2.378-2.915-2.1-2.929-2.34-3.221-2.569-3.142a.488.488,0,0,0-.306.426c-.057.32.181.692,2.579,4.034l2.636,3.674v.825a10.127,10.127,0,0,0,.42,2.582c.057.186-.076.186-1.442-.027-2.225-.359-3.181-.612-3.391-.878a31.6,31.6,0,0,1-2.885-7.295,33.317,33.317,0,0,1-.917-6.722v-.839l.984.08A12.62,12.62,0,0,1,15.76-486.962Zm21.062,7.321a14.444,14.444,0,0,1,1.7.186c.048.053-2.7,8.267-2.865,8.559-.067.133-.544.173-1.8.173h-1.7l.239-.719a11.487,11.487,0,0,0,.477-4.273c-.067-1.545-.21-3.355-.306-3.834-.048-.213.057-.227,1.271-.227C34.568-479.774,35.9-479.707,36.822-479.641Zm12.9,1.824a9.972,9.972,0,0,1,4.059,1.943c.134.147.163.24.086.373a1.919,1.919,0,0,0-.162.519c-.134.745-1.681,1.6-4.222,2.329a26.7,26.7,0,0,1-3.563.8c-.028-.039,1.471-6.136,1.566-6.349C47.568-478.362,48.122-478.269,49.727-477.817Zm-35.82,1.784c.239.652.63,1.664.869,2.223a11.137,11.137,0,0,1,.43,1.052,14.245,14.245,0,0,1-2.7-.905c-1.261-.626-1.653-1.025-1.653-1.7,0-.385.611-.905,1.653-1.424.487-.24.9-.44.926-.44A7.048,7.048,0,0,1,13.907-476.033Zm-2.273,3.115c2.168,1.4,6.743,2.476,13.21,3.128a122.677,122.677,0,0,0,12.513.147,52.527,52.527,0,0,0,9.6-1.145,20.647,20.647,0,0,0,6.438-2.223l.372-.266-.067,1.384c-.459,9.318-3.419,18.849-7.909,25.478l-.764,1.118H19.657l-.745-1.1a50.432,50.432,0,0,1-7.756-22.589,37.053,37.053,0,0,1-.286-4.393A8.658,8.658,0,0,1,11.633-472.918Zm33.222,32.146v3.2H19.924v-6.39h24.93v3.195Z" transform="translate(-9.99 498.787)" fill="#c52c7f" stroke="#c52c7f" stroke-width="1.5"/>
        </g>
      </g>
    </g>
  </g>
</svg>
