<svg xmlns="http://www.w3.org/2000/svg" xmlns:xlink="http://www.w3.org/1999/xlink" width="53" height="53" viewBox="0 0 53 53">
  <defs>
    <clipPath id="clip-ic_settings_unselected">
      <rect width="53" height="53"/>
    </clipPath>
  </defs>
  <g id="ic_settings_unselected" clip-path="url(#clip-ic_settings_unselected)">
    <path id="gear" d="M57.42,32.308,52.548,28.5a17.727,17.727,0,0,0,0-4l4.876-3.812A2.389,2.389,0,0,0,58,17.64L52.933,8.88A2.4,2.4,0,0,0,50,7.824l-5.742,2.31a19.669,19.669,0,0,0-3.449-2l-.881-6.1A2.347,2.347,0,0,0,37.585,0H27.426a2.341,2.341,0,0,0-2.332,2.014l-.883,6.117a20.4,20.4,0,0,0-3.445,2.005L15.009,7.822A2.347,2.347,0,0,0,12.1,8.858L7.028,17.634A2.372,2.372,0,0,0,7.6,20.692L12.476,24.5a17.559,17.559,0,0,0,0,4L7.6,32.313a2.387,2.387,0,0,0-.579,3.045l5.066,8.763a2.394,2.394,0,0,0,2.93,1.056l5.742-2.31a19.759,19.759,0,0,0,3.452,2.005l.883,6.095A2.343,2.343,0,0,0,27.426,53H37.584a2.343,2.343,0,0,0,2.339-2.014l.883-6.117a20.438,20.438,0,0,0,3.445-2.005l5.764,2.317a2.35,2.35,0,0,0,2.908-1.036l5.088-8.811A2.383,2.383,0,0,0,57.42,32.308ZM32.505,37.542A11.042,11.042,0,1,1,43.547,26.5,11.042,11.042,0,0,1,32.505,37.542Z" transform="translate(-5.703 0)" fill="#bcbcbc"/>
  </g>
</svg>
