<svg xmlns="http://www.w3.org/2000/svg" xmlns:xlink="http://www.w3.org/1999/xlink" width="66" height="66" viewBox="0 0 66 66">
  <defs>
    <clipPath id="clip-ic_settings">
      <rect width="66" height="66"/>
    </clipPath>
  </defs>
  <g id="ic_settings" clip-path="url(#clip-ic_settings)">
    <g id="settings" transform="translate(-35.199 -1107.199)">
      <rect id="Rectangle_3455" data-name="Rectangle 3455" width="66" height="66" transform="translate(35.199 1107.199)" fill="rgba(255,255,255,0)" opacity="0"/>
      <g id="iconfinder_Configuration-2-01_1976057" transform="translate(40.264 1112.264)">
        <path id="Path_2876" data-name="Path 2876" d="M54.452,21.849l-4.095-.473a19.508,19.508,0,0,0-.813-2.614l3.082-3.614a4.554,4.554,0,0,0-.243-6.121L49.847,6.455a4.53,4.53,0,0,0-6.1-.31L40.136,9.091a21.43,21.43,0,0,0-2.609-1.083l-.471-4.021C36.817,1.647,34.865.5,32.511.5H28.875c-2.353,0-4.31,1.147-4.548,3.49l-.473,4.328a19.823,19.823,0,0,0-2.614.929L17.625,6.222a4.553,4.553,0,0,0-6.121.272L8.933,9.047a4.545,4.545,0,0,0-.31,6.111l2.945,3.609a20.706,20.706,0,0,0-1.083,2.611l-5.259.471C2.886,22.087.5,24.041.5,26.395v3.637c0,2.353,2.386,4.31,4.729,4.548l4.947.473a22.537,22.537,0,0,0,1.239,2.614L8.546,41.281A4.56,4.56,0,0,0,8.9,47.4l2.591,2.571a4.57,4.57,0,0,0,6.131.31l3.617-2.945a21.54,21.54,0,0,0,2.616,1.083l.473,4.793a4.7,4.7,0,0,0,4.548,4.263h3.637a4.7,4.7,0,0,0,4.548-4.263L37.53,48.5a21.56,21.56,0,0,0,2.614-1.122L43.758,50.3a4.558,4.558,0,0,0,6.121-.32l2.571-2.576a4.561,4.561,0,0,0,.31-6.124l-2.945-3.614A21.5,21.5,0,0,0,50.9,35.055l3.555-.473c2.341-.238,3.025-2.195,3.025-4.548V26.4C57.477,24.041,56.793,22.087,54.452,21.849ZM55,30.034c0,.785.211,1.437-.57,1.516l-5.242.575a1.2,1.2,0,0,0-.941.716c-.087.139-.047.287-.084.443A17.963,17.963,0,0,1,46.622,37.1a1.525,1.525,0,0,0,.171,1.712l3.6,4.4a1.521,1.521,0,0,1-.1,2.041l-2.569,2.571a1.518,1.518,0,0,1-2.039.1l-4.395-3.585a1.52,1.52,0,0,0-1.36-.287,1.539,1.539,0,0,0-.4.171,18.046,18.046,0,0,1-3.82,1.571A1.524,1.524,0,0,0,34.6,47.11l-.575,6.082C33.95,53.972,33.3,55,32.514,55H28.877c-.785,0-1.437-1.028-1.516-1.808l-.575-5.861a1.739,1.739,0,0,0-.716-1.251,1.646,1.646,0,0,0-.443-.24,18.255,18.255,0,0,1-3.817-1.618,1.52,1.52,0,0,0-1.712.131l-4.4,3.577a1.519,1.519,0,0,1-2.041-.107l-2.571-2.574a1.521,1.521,0,0,1-.1-2.041l3.585-4.4a1.524,1.524,0,0,0,.287-1.362,1.539,1.539,0,0,0-.171-.4,18.046,18.046,0,0,1-1.571-3.82A1.524,1.524,0,0,0,11.8,32.125L5.256,31.55c-.785-.079-2.279-.733-2.279-1.516V26.4c0-.785,1.494-1.437,2.274-1.516l6.094-.575a1.991,1.991,0,0,0,1.367-.711c.094-.151.272-.312.307-.483a18.226,18.226,0,0,1,1.637-3.78,1.518,1.518,0,0,0-.116-1.712l-3.57-4.4a1.522,1.522,0,0,1,.111-2.041l2.574-2.571a1.521,1.521,0,0,1,2.041-.1l4.4,3.585a1.52,1.52,0,0,0,1.362.287,1.539,1.539,0,0,0,.4-.171,18.046,18.046,0,0,1,3.82-1.571,1.524,1.524,0,0,0,1.107-1.313l.575-5.306c.077-.785.731-1.04,1.514-1.04h3.637c.785,0,1.437.255,1.516,1.035L34.6,9.487a1.374,1.374,0,0,0,.716,1.055,1.39,1.39,0,0,0,.443.144,18.023,18.023,0,0,1,3.817,1.571,1.523,1.523,0,0,0,1.712-.156l4.4-3.59a1.521,1.521,0,0,1,2.041.1L50.3,11.184a1.521,1.521,0,0,1,.1,2.041L46.817,17.62a1.524,1.524,0,0,0-.287,1.362,1.539,1.539,0,0,0,.171.4,18.046,18.046,0,0,1,1.571,3.82,1.524,1.524,0,0,0,1.313,1.107l4.843.575c.78.079.572.731.572,1.516v3.634Z" transform="translate(-0.5 -0.5)" fill="#3f4953"/>
        <path id="Path_2877" data-name="Path 2877" d="M19.049,7.382A10.667,10.667,0,1,0,29.716,18.049,10.68,10.68,0,0,0,19.049,7.382Zm0,18.285a7.62,7.62,0,1,1,7.62-7.62A7.629,7.629,0,0,1,19.049,25.667Z" transform="translate(11.144 9.666)" fill="#3f4953"/>
      </g>
    </g>
  </g>
</svg>
