<svg xmlns="http://www.w3.org/2000/svg" xmlns:xlink="http://www.w3.org/1999/xlink" width="70" height="70" viewBox="0 0 70 70">
  <defs>
    <clipPath id="clip-ic_username">
      <rect width="70" height="70"/>
    </clipPath>
  </defs>
  <g id="ic_username" clip-path="url(#clip-ic_username)">
    <g id="username" transform="translate(-175 -864)" opacity="0.5">
      <rect id="Rectangle_1879" data-name="Rectangle 1879" width="70" height="70" transform="translate(175 864)" fill="rgba(255,255,255,0)" opacity="0"/>
      <path id="Profile" d="M55.873,43.219c-1.775-1.774-4.744-3.323-9.425-5.664-2.36-1.18-6.288-3.143-7.24-4.042,3.987-4.9,6.3-10.437,6.3-15.282,0-3.288,0-7.38-1.84-11.029C42.01,3.916,38.3,0,30.063,0S18.114,3.916,16.456,7.2c-1.843,3.65-1.843,7.741-1.843,11.029,0,4.847,2.312,10.382,6.3,15.282-.954.9-4.882,2.864-7.242,4.042-4.68,2.341-7.649,3.89-9.425,5.664C.318,47.153.021,53.753,0,55.037a5.01,5.01,0,0,0,5.008,5.086h50.1a5.01,5.01,0,0,0,5.01-5.088C60.1,53.753,59.8,47.153,55.873,43.219Zm.134,12.772a1.252,1.252,0,0,1-.894.374H5.008a1.252,1.252,0,0,1-.89-.374,1.269,1.269,0,0,1-.362-.9c.011-.629.184-6.25,3.149-9.216,1.369-1.369,4.235-2.853,8.449-4.962,4.5-2.248,6.992-3.587,8.141-4.673l2.536-2.4-2.2-2.7c-3.468-4.26-5.459-8.967-5.459-12.91,0-3.04,0-6.484,1.439-9.336,1.723-3.409,5.169-5.138,10.253-5.138s8.53,1.729,10.251,5.136c1.439,2.853,1.439,6.3,1.439,9.337,0,3.941-1.989,8.647-5.462,12.91l-2.2,2.706,2.536,2.4c1.148,1.085,3.641,2.424,8.141,4.673,4.214,2.106,7.08,3.591,8.449,4.962,2.413,2.413,3.116,6.928,3.149,9.216A1.253,1.253,0,0,1,56.006,55.991Z" transform="translate(180.105 868.983)" fill="#727c8e" stroke="#727c8e" stroke-width="0.6" opacity="0.998"/>
    </g>
  </g>
</svg>
