<svg xmlns="http://www.w3.org/2000/svg" xmlns:xlink="http://www.w3.org/1999/xlink" width="66" height="66" viewBox="0 0 66 66">
  <defs>
    <clipPath id="clip-ic_videos">
      <rect width="66" height="66"/>
    </clipPath>
  </defs>
  <g id="ic_videos" clip-path="url(#clip-ic_videos)">
    <g id="videos" transform="translate(-34.517 -1106.518)">
      <rect id="Rectangle_3455" data-name="Rectangle 3455" width="66" height="66" transform="translate(34.517 1106.517)" fill="rgba(255,255,255,0)" opacity="0"/>
      <g id="Group_629" data-name="Group 629" transform="translate(43.159 1114.341)">
        <path id="Path_1005" data-name="Path 1005" d="M41.884,26.8,23.319,14.147a.843.843,0,0,0-1.319.7V40.16a.843.843,0,0,0,1.319.7L41.884,28.2a.843.843,0,0,0,0-1.394Zm-18.2,11.758V16.441L39.911,27.5Z" transform="translate(-3.436 -2.186)" fill="#3e4953" stroke="#3f4953" stroke-width="1.5"/>
        <path id="Path_1006" data-name="Path 1006" d="M25.316,0A25.316,25.316,0,1,0,50.632,25.316,25.345,25.345,0,0,0,25.316,0Zm0,48.944A23.628,23.628,0,1,1,48.944,25.316,23.655,23.655,0,0,1,25.316,48.944Z" transform="translate(0)" fill="#3e4953" stroke="#3f4953" stroke-width="1.5"/>
      </g>
    </g>
  </g>
</svg>
