<?xml version="1.0" encoding="UTF-8"?>
<svg xmlns="http://www.w3.org/2000/svg" xmlns:xlink="http://www.w3.org/1999/xlink" width="px" height="px" viewBox="0 0 6 4" version="1.1">
<defs>
<filter id="alpha" filterUnits="objectBoundingBox" x="0%" y="0%" width="100%" height="100%">
  <feColorMatrix type="matrix" in="SourceGraphic" values="0 0 0 0 1 0 0 0 0 1 0 0 0 0 1 0 0 0 1 0"/>
</filter>
<mask id="mask0">
  <g filter="url(#alpha)">
<rect x="0" y="0" width="6" height="4" style="fill:rgb(0%,0%,0%);fill-opacity:0.819608;stroke:none;"/>
  </g>
</mask>
<clipPath id="clip1">
  <rect x="0" y="0" width="6" height="4"/>
</clipPath>
<g id="surface5" clip-path="url(#clip1)">
<path style=" stroke:none;fill-rule:evenodd;fill:rgb(23.921569%,32.156863%,37.647059%);fill-opacity:1;" d="M -0.109375 -0.117188 C 1.445312 -0.117188 3 -0.117188 4.554688 -0.117188 C 4.554688 0.117188 4.554688 0.351562 4.554688 0.589844 C 3 0.589844 1.445312 0.589844 -0.109375 0.589844 C -0.109375 0.351562 -0.109375 0.117188 -0.109375 -0.117188 Z M -0.109375 -0.117188 "/>
</g>
<mask id="mask1">
  <g filter="url(#alpha)">
<rect x="0" y="0" width="6" height="4" style="fill:rgb(0%,0%,0%);fill-opacity:0.827451;stroke:none;"/>
  </g>
</mask>
<clipPath id="clip2">
  <rect x="0" y="0" width="6" height="4"/>
</clipPath>
<g id="surface8" clip-path="url(#clip2)">
<path style=" stroke:none;fill-rule:evenodd;fill:rgb(23.921569%,32.156863%,37.647059%);fill-opacity:1;" d="M -0.109375 1.53125 C 1.890625 1.53125 3.890625 1.53125 5.890625 1.53125 C 5.890625 1.765625 5.890625 2 5.890625 2.234375 C 3.890625 2.234375 1.890625 2.234375 -0.109375 2.234375 C -0.109375 2 -0.109375 1.765625 -0.109375 1.53125 Z M -0.109375 1.53125 "/>
</g>
<mask id="mask2">
  <g filter="url(#alpha)">
<rect x="0" y="0" width="6" height="4" style="fill:rgb(0%,0%,0%);fill-opacity:0.839216;stroke:none;"/>
  </g>
</mask>
<clipPath id="clip3">
  <rect x="0" y="0" width="6" height="4"/>
</clipPath>
<g id="surface11" clip-path="url(#clip3)">
<path style=" stroke:none;fill-rule:evenodd;fill:rgb(23.921569%,32.156863%,37.647059%);fill-opacity:1;" d="M -0.109375 3.175781 C 1 3.175781 2.109375 3.175781 3.222656 3.175781 C 3.222656 3.410156 3.222656 3.648438 3.222656 3.882812 C 2.109375 3.882812 1 3.882812 -0.109375 3.882812 C -0.109375 3.648438 -0.109375 3.410156 -0.109375 3.175781 Z M -0.109375 3.175781 "/>
</g>
</defs>
<g id="surface1">
<use xlink:href="#surface5" mask="url(#mask0)"/>
<use xlink:href="#surface8" mask="url(#mask1)"/>
<use xlink:href="#surface11" mask="url(#mask2)"/>
</g>
</svg>
