<svg xmlns="http://www.w3.org/2000/svg" xmlns:xlink="http://www.w3.org/1999/xlink" width="66" height="66" viewBox="0 0 66 66">
  <defs>
    <clipPath id="clip-path">
      <rect id="Rectangle_3537" data-name="Rectangle 3537" width="66" height="66" transform="translate(89 376)" fill="#fff" stroke="#707070" stroke-width="1"/>
    </clipPath>
    <clipPath id="clip-menu_home_selector">
      <rect width="66" height="66"/>
    </clipPath>
  </defs>
  <g id="menu_home_selector" clip-path="url(#clip-menu_home_selector)">
    <g id="Mask_Group_65" data-name="Mask Group 65" transform="translate(-89 -376)" clip-path="url(#clip-path)">
      <g id="Expanded" transform="translate(94.077 381.077)">
        <g id="Group_9510" data-name="Group 9510" transform="translate(0 0)">
          <g id="Group_9507" data-name="Group 9507" transform="translate(6.216 31.485)">
            <path id="Path_2971" data-name="Path 2971" d="M50.975,48.793H33.485V35.324H23.49V48.793H6V27.036A1.157,1.157,0,0,1,7.249,26,1.157,1.157,0,0,1,8.5,27.036V46.721H20.992V33.252H35.983V46.721H48.476V28.072a1.271,1.271,0,0,1,2.5,0Z" transform="translate(-6 -26)" fill="#c52c7f" stroke="#c52c7f" stroke-width="2"/>
          </g>
          <g id="Group_9508" data-name="Group 9508" transform="translate(0)">
            <path id="Path_2972" data-name="Path 2972" d="M56.211,27.879a1.3,1.3,0,0,1-.826-.287L28.7,5.484,2.022,27.592a1.331,1.331,0,0,1-1.691-.032.942.942,0,0,1,.037-1.465L28.7,2.616,57.038,26.093a.942.942,0,0,1,.037,1.465A1.286,1.286,0,0,1,56.211,27.879Z" transform="translate(0 -2.616)" fill="#c52c7f" stroke="#c52c7f" stroke-width="2"/>
          </g>
          <g id="Group_9509" data-name="Group 9509" transform="translate(38.22 3.506)">
            <path id="Path_2973" data-name="Path 2973" d="M39.288,15.324a1.036,1.036,0,0,1-1.036-1.036V8.072H32.036a1.036,1.036,0,0,1,0-2.072h8.288v8.288A1.036,1.036,0,0,1,39.288,15.324Z" transform="translate(-31 -6)" fill="#c52c7f" stroke="#c52c7f" stroke-width="2"/>
          </g>
        </g>
      </g>
    </g>
  </g>
</svg>
