<?xml version="1.0" encoding="utf-8"?>
<!-- Svg Vector Icons : http://www.onlinewebfonts.com/icon -->
<!DOCTYPE svg PUBLIC "-//W3C//DTD SVG 1.1//EN" "http://www.w3.org/Graphics/SVG/1.1/DTD/svg11.dtd">
<svg version="1.1" xmlns="http://www.w3.org/2000/svg" xmlns:xlink="http://www.w3.org/1999/xlink" x="0px" y="0px" viewBox="0 0 256 256" enable-background="new 0 0 256 256" xml:space="preserve">
<metadata> Svg Vector Icons : http://www.onlinewebfonts.com/icon </metadata>
<g><g><path fill="#000000" d="M244.4,124.2l-53.6-53.6c-1.1-1.1-2.1-1.6-3.8-1.6c-3.2,0-5.4,2.1-5.4,5.4c0,1.6,0.5,2.7,1.6,3.8l44.5,44.5H15.4c-3.2,0-5.4,2.1-5.4,5.4c0,3.2,2.1,5.4,5.4,5.4h212.4l-44.5,44.5c-1.1,1.1-1.6,2.1-1.6,3.8c0,3.2,2.1,5.4,5.4,5.4c1.6,0,2.7-0.5,3.8-1.6l53.6-53.6c1.1-1.1,1.6-2.1,1.6-3.8C246,126.4,245.5,125.3,244.4,124.2z"/></g></g>
</svg>