<?xml version="1.0" encoding="UTF-8"?>
<svg xmlns="http://www.w3.org/2000/svg" xmlns:xlink="http://www.w3.org/1999/xlink" width="60px" height="60px" viewBox="0 0 60 60" version="1.1">
<defs>
<filter id="alpha" filterUnits="objectBoundingBox" x="0%" y="0%" width="100%" height="100%">
  <feColorMatrix type="matrix" in="SourceGraphic" values="0 0 0 0 1 0 0 0 0 1 0 0 0 0 1 0 0 0 1 0"/>
</filter>
<mask id="mask0">
  <g filter="url(#alpha)">
<rect x="0" y="0" width="60" height="60" style="fill:rgb(0%,0%,0%);fill-opacity:0.686275;stroke:none;"/>
  </g>
</mask>
<clipPath id="clip1">
  <rect x="0" y="0" width="60" height="60"/>
</clipPath>
<g id="surface5" clip-path="url(#clip1)">
<path style=" stroke:none;fill-rule:evenodd;fill:rgb(89.803922%,59.215686%,71.764706%);fill-opacity:1;" d="M 44.257812 3.863281 C 42.226562 3.734375 40.25 3.980469 38.332031 4.601562 C 38.648438 4.0625 39.140625 3.753906 39.816406 3.679688 C 41.367188 3.382812 42.847656 3.445312 44.257812 3.863281 Z M 44.257812 3.863281 "/>
</g>
<mask id="mask1">
  <g filter="url(#alpha)">
<rect x="0" y="0" width="60" height="60" style="fill:rgb(0%,0%,0%);fill-opacity:0.556863;stroke:none;"/>
  </g>
</mask>
<clipPath id="clip2">
  <rect x="0" y="0" width="60" height="60"/>
</clipPath>
<g id="surface8" clip-path="url(#clip2)">
<path style=" stroke:none;fill-rule:evenodd;fill:rgb(90.196078%,61.568627%,73.333333%);fill-opacity:1;" d="M 17.59375 4.601562 C 16.664062 3.648438 15.738281 3.648438 14.816406 4.601562 C 14.628906 9.261719 14.566406 13.925781 14.628906 18.589844 C 14.199219 13.867188 14.136719 9.082031 14.445312 4.234375 C 15.242188 3.519531 16.167969 3.332031 17.222656 3.679688 C 17.5 3.929688 17.625 4.234375 17.59375 4.601562 Z M 17.59375 4.601562 "/>
</g>
<mask id="mask2">
  <g filter="url(#alpha)">
<rect x="0" y="0" width="60" height="60" style="fill:rgb(0%,0%,0%);fill-opacity:0.972549;stroke:none;"/>
  </g>
</mask>
<clipPath id="clip3">
  <rect x="0" y="0" width="60" height="60"/>
</clipPath>
<g id="surface11" clip-path="url(#clip3)">
<path style=" stroke:none;fill-rule:evenodd;fill:rgb(93.333333%,69.411765%,78.039216%);fill-opacity:1;" d="M 22.035156 3.863281 C 22.304688 4.019531 22.488281 4.265625 22.59375 4.601562 C 22.839844 9.265625 22.839844 13.925781 22.59375 18.589844 C 21.636719 19.886719 20.589844 20.011719 19.445312 18.957031 C 20.292969 19.050781 21.097656 18.929688 21.851562 18.589844 C 22.035156 13.683594 22.097656 8.773438 22.035156 3.863281 Z M 22.035156 3.863281 "/>
</g>
<mask id="mask3">
  <g filter="url(#alpha)">
<rect x="0" y="0" width="60" height="60" style="fill:rgb(0%,0%,0%);fill-opacity:0.862745;stroke:none;"/>
  </g>
</mask>
<clipPath id="clip4">
  <rect x="0" y="0" width="60" height="60"/>
</clipPath>
<g id="surface14" clip-path="url(#clip4)">
<path style=" stroke:none;fill-rule:evenodd;fill:rgb(92.156863%,67.058824%,76.862745%);fill-opacity:1;" d="M 26.480469 3.863281 C 25.660156 3.746094 24.980469 3.992188 24.445312 4.601562 C 24.5 9.523438 24.191406 14.308594 23.519531 18.957031 C 23.457031 14.171875 23.519531 9.386719 23.703125 4.601562 C 24.535156 3.332031 25.460938 3.085938 26.480469 3.863281 Z M 26.480469 3.863281 "/>
</g>
<mask id="mask4">
  <g filter="url(#alpha)">
<rect x="0" y="0" width="60" height="60" style="fill:rgb(0%,0%,0%);fill-opacity:0.827451;stroke:none;"/>
  </g>
</mask>
<clipPath id="clip5">
  <rect x="0" y="0" width="60" height="60"/>
</clipPath>
<g id="surface17" clip-path="url(#clip5)">
<path style=" stroke:none;fill-rule:evenodd;fill:rgb(90.588235%,64.313725%,74.117647%);fill-opacity:1;" d="M 26.480469 3.863281 C 26.835938 4.03125 27.144531 4.277344 27.40625 4.601562 C 27.65625 9.632812 27.65625 14.664062 27.40625 19.691406 C 27.269531 20.222656 26.960938 20.59375 26.480469 20.796875 C 26.976562 15.152344 26.976562 9.507812 26.480469 3.863281 Z M 26.480469 3.863281 "/>
</g>
<mask id="mask5">
  <g filter="url(#alpha)">
<rect x="0" y="0" width="60" height="60" style="fill:rgb(0%,0%,0%);fill-opacity:0.72549;stroke:none;"/>
  </g>
</mask>
<clipPath id="clip6">
  <rect x="0" y="0" width="60" height="60"/>
</clipPath>
<g id="surface20" clip-path="url(#clip6)">
<path style=" stroke:none;fill-rule:evenodd;fill:rgb(90.980392%,63.137255%,74.117647%);fill-opacity:1;" d="M 17.59375 23.375 C 16 21.976562 14.457031 20.503906 12.964844 18.957031 C 12.839844 14.171875 12.714844 9.386719 12.59375 4.601562 C 12.058594 3.992188 11.378906 3.746094 10.554688 3.863281 C 11.363281 3.039062 12.164062 3.160156 12.964844 4.234375 C 13.085938 9.019531 13.210938 13.804688 13.332031 18.589844 C 14.976562 20.035156 16.394531 21.628906 17.59375 23.375 Z M 17.59375 23.375 "/>
</g>
<mask id="mask6">
  <g filter="url(#alpha)">
<rect x="0" y="0" width="60" height="60" style="fill:rgb(0%,0%,0%);fill-opacity:0.756863;stroke:none;"/>
  </g>
</mask>
<clipPath id="clip7">
  <rect x="0" y="0" width="60" height="60"/>
</clipPath>
<g id="surface23" clip-path="url(#clip7)">
<path style=" stroke:none;fill-rule:evenodd;fill:rgb(94.509804%,56.862745%,72.156863%);fill-opacity:1;" d="M 21.667969 3.863281 C 20.84375 3.746094 20.164062 3.992188 19.628906 4.601562 C 19.445312 9.261719 19.382812 13.925781 19.445312 18.589844 C 19.175781 18.433594 18.992188 18.191406 18.890625 17.851562 C 18.640625 13.558594 18.640625 9.265625 18.890625 4.96875 C 19.542969 3.433594 20.46875 3.066406 21.667969 3.863281 Z M 21.667969 3.863281 "/>
</g>
<mask id="mask7">
  <g filter="url(#alpha)">
<rect x="0" y="0" width="60" height="60" style="fill:rgb(0%,0%,0%);fill-opacity:0.909804;stroke:none;"/>
  </g>
</mask>
<clipPath id="clip8">
  <rect x="0" y="0" width="60" height="60"/>
</clipPath>
<g id="surface26" clip-path="url(#clip8)">
<path style=" stroke:none;fill-rule:evenodd;fill:rgb(92.54902%,69.411765%,78.431373%);fill-opacity:1;" d="M 38.332031 4.601562 C 37.59375 5.582031 36.726562 6.441406 35.742188 7.179688 C 36.234375 5.949219 37.097656 5.09375 38.332031 4.601562 Z M 38.332031 4.601562 "/>
</g>
<mask id="mask8">
  <g filter="url(#alpha)">
<rect x="0" y="0" width="60" height="60" style="fill:rgb(0%,0%,0%);fill-opacity:0.294118;stroke:none;"/>
  </g>
</mask>
<clipPath id="clip9">
  <rect x="0" y="0" width="60" height="60"/>
</clipPath>
<g id="surface29" clip-path="url(#clip9)">
<path style=" stroke:none;fill-rule:evenodd;fill:rgb(87.843137%,58.823529%,69.411765%);fill-opacity:1;" d="M 44.257812 7.546875 C 42.597656 6.984375 40.992188 7.105469 39.445312 7.914062 C 40.0625 7.058594 40.925781 6.6875 42.035156 6.808594 C 42.917969 6.757812 43.660156 7.003906 44.257812 7.546875 Z M 44.257812 7.546875 "/>
</g>
<mask id="mask9">
  <g filter="url(#alpha)">
<rect x="0" y="0" width="60" height="60" style="fill:rgb(0%,0%,0%);fill-opacity:0.278431;stroke:none;"/>
  </g>
</mask>
<clipPath id="clip10">
  <rect x="0" y="0" width="60" height="60"/>
</clipPath>
<g id="surface32" clip-path="url(#clip10)">
<path style=" stroke:none;fill-rule:evenodd;fill:rgb(88.627451%,56.862745%,70.196078%);fill-opacity:1;" d="M 48.332031 7.179688 C 49.378906 8.699219 49.996094 10.417969 50.183594 12.332031 C 49.429688 10.695312 48.8125 8.980469 48.332031 7.179688 Z M 48.332031 7.179688 "/>
</g>
<mask id="mask10">
  <g filter="url(#alpha)">
<rect x="0" y="0" width="60" height="60" style="fill:rgb(0%,0%,0%);fill-opacity:0.223529;stroke:none;"/>
  </g>
</mask>
<clipPath id="clip11">
  <rect x="0" y="0" width="60" height="60"/>
</clipPath>
<g id="surface35" clip-path="url(#clip11)">
<path style=" stroke:none;fill-rule:evenodd;fill:rgb(87.843137%,53.72549%,67.45098%);fill-opacity:1;" d="M 35.371094 7.914062 C 35.210938 9.125 34.839844 10.226562 34.257812 11.226562 C 34.269531 9.96875 34.640625 8.863281 35.371094 7.914062 Z M 35.371094 7.914062 "/>
</g>
<mask id="mask11">
  <g filter="url(#alpha)">
<rect x="0" y="0" width="60" height="60" style="fill:rgb(0%,0%,0%);fill-opacity:0.313725;stroke:none;"/>
  </g>
</mask>
<clipPath id="clip12">
  <rect x="0" y="0" width="60" height="60"/>
</clipPath>
<g id="surface38" clip-path="url(#clip12)">
<path style=" stroke:none;fill-rule:evenodd;fill:rgb(89.019608%,53.72549%,67.843137%);fill-opacity:1;" d="M 39.074219 8.28125 C 38.792969 9.207031 38.421875 10.066406 37.964844 10.859375 C 37.839844 9.757812 38.210938 8.898438 39.074219 8.28125 Z M 39.074219 8.28125 "/>
</g>
<mask id="mask12">
  <g filter="url(#alpha)">
<rect x="0" y="0" width="60" height="60" style="fill:rgb(0%,0%,0%);fill-opacity:0.752941;stroke:none;"/>
  </g>
</mask>
<clipPath id="clip13">
  <rect x="0" y="0" width="60" height="60"/>
</clipPath>
<g id="surface41" clip-path="url(#clip13)">
<path style=" stroke:none;fill-rule:evenodd;fill:rgb(90.196078%,56.862745%,69.019608%);fill-opacity:1;" d="M 34.257812 11.226562 C 33.046875 15.507812 33.296875 19.679688 35 23.742188 C 34.0625 22.863281 33.507812 21.757812 33.332031 20.429688 C 33.085938 18.222656 33.085938 16.011719 33.332031 13.804688 C 33.476562 12.84375 33.785156 11.984375 34.257812 11.226562 Z M 34.257812 11.226562 "/>
</g>
<mask id="mask13">
  <g filter="url(#alpha)">
<rect x="0" y="0" width="60" height="60" style="fill:rgb(0%,0%,0%);fill-opacity:0.541176;stroke:none;"/>
  </g>
</mask>
<clipPath id="clip14">
  <rect x="0" y="0" width="60" height="60"/>
</clipPath>
<g id="surface44" clip-path="url(#clip14)">
<path style=" stroke:none;fill-rule:evenodd;fill:rgb(90.588235%,60.392157%,72.54902%);fill-opacity:1;" d="M 37.964844 10.859375 C 36.984375 14 36.734375 17.191406 37.222656 20.429688 C 36.9375 20.148438 36.753906 19.78125 36.667969 19.324219 C 36.417969 17.730469 36.417969 16.136719 36.667969 14.539062 C 36.777344 13.160156 37.210938 11.933594 37.964844 10.859375 Z M 37.964844 10.859375 "/>
</g>
<mask id="mask14">
  <g filter="url(#alpha)">
<rect x="0" y="0" width="60" height="60" style="fill:rgb(0%,0%,0%);fill-opacity:0.419608;stroke:none;"/>
  </g>
</mask>
<clipPath id="clip15">
  <rect x="0" y="0" width="60" height="60"/>
</clipPath>
<g id="surface47" clip-path="url(#clip15)">
<path style=" stroke:none;fill-rule:evenodd;fill:rgb(90.980392%,61.568627%,73.333333%);fill-opacity:1;" d="M 45 8.28125 C 45.324219 8.234375 45.570312 8.355469 45.742188 8.648438 C 47.613281 12.671875 48.046875 16.84375 47.035156 21.164062 C 46.476562 22.402344 45.550781 23.136719 44.257812 23.375 C 45.238281 22.707031 46.039062 21.847656 46.667969 20.796875 C 47.484375 16.449219 46.929688 12.28125 45 8.28125 Z M 45 8.28125 "/>
</g>
<mask id="mask15">
  <g filter="url(#alpha)">
<rect x="0" y="0" width="60" height="60" style="fill:rgb(0%,0%,0%);fill-opacity:0.607843;stroke:none;"/>
  </g>
</mask>
<clipPath id="clip16">
  <rect x="0" y="0" width="60" height="60"/>
</clipPath>
<g id="surface50" clip-path="url(#clip16)">
<path style=" stroke:none;fill-rule:evenodd;fill:rgb(90.588235%,60%,72.156863%);fill-opacity:1;" d="M 50.183594 12.332031 C 50.476562 12.738281 50.664062 13.230469 50.742188 13.804688 C 50.988281 16.136719 50.988281 18.464844 50.742188 20.796875 C 50.460938 21.96875 49.90625 22.953125 49.074219 23.742188 C 49.5 22.644531 49.933594 21.542969 50.371094 20.429688 C 50.539062 17.726562 50.476562 15.027344 50.183594 12.332031 Z M 50.183594 12.332031 "/>
</g>
<mask id="mask16">
  <g filter="url(#alpha)">
<rect x="0" y="0" width="60" height="60" style="fill:rgb(0%,0%,0%);fill-opacity:0.956863;stroke:none;"/>
  </g>
</mask>
<clipPath id="clip17">
  <rect x="0" y="0" width="60" height="60"/>
</clipPath>
<g id="surface53" clip-path="url(#clip17)">
<path style=" stroke:none;fill-rule:evenodd;fill:rgb(92.156863%,68.627451%,77.647059%);fill-opacity:1;" d="M 14.628906 18.589844 C 15.617188 19.078125 16.605469 19.078125 17.59375 18.589844 C 16.605469 20.0625 15.617188 20.0625 14.628906 18.589844 Z M 14.628906 18.589844 "/>
</g>
<mask id="mask17">
  <g filter="url(#alpha)">
<rect x="0" y="0" width="60" height="60" style="fill:rgb(0%,0%,0%);fill-opacity:0.784314;stroke:none;"/>
  </g>
</mask>
<clipPath id="clip18">
  <rect x="0" y="0" width="60" height="60"/>
</clipPath>
<g id="surface56" clip-path="url(#clip18)">
<path style=" stroke:none;fill-rule:evenodd;fill:rgb(90.980392%,60.392157%,72.156863%);fill-opacity:1;" d="M 37.59375 21.535156 C 38.210938 21.902344 38.703125 22.394531 39.074219 23.007812 C 38.210938 22.882812 37.714844 22.394531 37.59375 21.535156 Z M 37.59375 21.535156 "/>
</g>
<mask id="mask18">
  <g filter="url(#alpha)">
<rect x="0" y="0" width="60" height="60" style="fill:rgb(0%,0%,0%);fill-opacity:0.247059;stroke:none;"/>
  </g>
</mask>
<clipPath id="clip19">
  <rect x="0" y="0" width="60" height="60"/>
</clipPath>
<g id="surface59" clip-path="url(#clip19)">
<path style=" stroke:none;fill-rule:evenodd;fill:rgb(89.019608%,54.509804%,68.235294%);fill-opacity:1;" d="M 39.074219 23.007812 C 39.882812 23.132812 40.558594 23.5 41.109375 24.109375 C 41.167969 32.523438 40.859375 40.867188 40.183594 49.140625 C 40.183594 47.792969 40.183594 46.441406 40.183594 45.09375 C 40.445312 38.21875 40.628906 31.347656 40.742188 24.480469 C 40.125 24.023438 39.566406 23.535156 39.074219 23.007812 Z M 39.074219 23.007812 "/>
</g>
<mask id="mask19">
  <g filter="url(#alpha)">
<rect x="0" y="0" width="60" height="60" style="fill:rgb(0%,0%,0%);fill-opacity:0.584314;stroke:none;"/>
  </g>
</mask>
<clipPath id="clip20">
  <rect x="0" y="0" width="60" height="60"/>
</clipPath>
<g id="surface62" clip-path="url(#clip20)">
<path style=" stroke:none;fill-rule:evenodd;fill:rgb(89.411765%,55.294118%,69.019608%);fill-opacity:1;" d="M 17.59375 23.375 C 17.839844 24.285156 17.960938 25.269531 17.964844 26.320312 C 17.8125 29.820312 17.566406 33.253906 17.222656 36.625 C 17.222656 35.765625 17.222656 34.90625 17.222656 34.050781 C 17.25 30.488281 17.375 26.929688 17.59375 23.375 Z M 17.59375 23.375 "/>
</g>
<mask id="mask20">
  <g filter="url(#alpha)">
<rect x="0" y="0" width="60" height="60" style="fill:rgb(0%,0%,0%);fill-opacity:0.709804;stroke:none;"/>
  </g>
</mask>
<clipPath id="clip21">
  <rect x="0" y="0" width="60" height="60"/>
</clipPath>
<g id="surface65" clip-path="url(#clip21)">
<path style=" stroke:none;fill-rule:evenodd;fill:rgb(88.627451%,53.72549%,67.45098%);fill-opacity:1;" d="M 13.890625 25.949219 C 14.066406 33.996094 13.820312 42.09375 13.148438 50.246094 C 13.125 52.132812 13.617188 53.847656 14.628906 55.398438 C 13.144531 54.039062 12.527344 52.320312 12.777344 50.246094 C 13.296875 42.152344 13.667969 34.054688 13.890625 25.949219 Z M 13.890625 25.949219 "/>
</g>
<mask id="mask21">
  <g filter="url(#alpha)">
<rect x="0" y="0" width="60" height="60" style="fill:rgb(0%,0%,0%);fill-opacity:0.705882;stroke:none;"/>
  </g>
</mask>
<clipPath id="clip22">
  <rect x="0" y="0" width="60" height="60"/>
</clipPath>
<g id="surface68" clip-path="url(#clip22)">
<path style=" stroke:none;fill-rule:evenodd;fill:rgb(89.803922%,58.823529%,70.980392%);fill-opacity:1;" d="M 47.222656 25.582031 C 46.90625 25.960938 46.660156 26.390625 46.480469 26.871094 C 47.199219 35.75 47.507812 44.644531 47.40625 53.558594 C 47.304688 53.894531 47.121094 54.140625 46.851562 54.292969 C 47.042969 52.277344 47.167969 50.253906 47.222656 48.222656 C 46.863281 40.792969 46.554688 33.371094 46.296875 25.949219 C 46.542969 25.675781 46.851562 25.550781 47.222656 25.582031 Z M 47.222656 25.582031 "/>
</g>
<mask id="mask22">
  <g filter="url(#alpha)">
<rect x="0" y="0" width="60" height="60" style="fill:rgb(0%,0%,0%);fill-opacity:0.733333;stroke:none;"/>
  </g>
</mask>
<clipPath id="clip23">
  <rect x="0" y="0" width="60" height="60"/>
</clipPath>
<g id="surface71" clip-path="url(#clip23)">
<path style=" stroke:none;fill-rule:evenodd;fill:rgb(89.803922%,58.823529%,71.372549%);fill-opacity:1;" d="M 22.777344 24.480469 C 23.179688 33.382812 23.671875 42.277344 24.257812 51.164062 C 24.082031 52.542969 23.652344 53.828125 22.964844 55.03125 C 22.542969 55.632812 21.988281 56.003906 21.296875 56.136719 C 22.183594 55.3125 22.863281 54.332031 23.332031 53.191406 C 23.453125 44.773438 23.144531 36.367188 22.40625 27.976562 C 22.40625 26.742188 22.53125 25.574219 22.777344 24.480469 Z M 22.777344 24.480469 "/>
</g>
<mask id="mask23">
  <g filter="url(#alpha)">
<rect x="0" y="0" width="60" height="60" style="fill:rgb(0%,0%,0%);fill-opacity:0.65098;stroke:none;"/>
  </g>
</mask>
<clipPath id="clip24">
  <rect x="0" y="0" width="60" height="60"/>
</clipPath>
<g id="surface74" clip-path="url(#clip24)">
<path style=" stroke:none;fill-rule:evenodd;fill:rgb(89.411765%,56.078431%,69.411765%);fill-opacity:1;" d="M 36.480469 25.214844 C 37.042969 25.21875 37.476562 25.464844 37.777344 25.949219 C 37.5625 33.675781 37.25 41.40625 36.851562 49.140625 C 36.792969 51.035156 37.039062 52.875 37.59375 54.664062 C 37.113281 54.457031 36.804688 54.089844 36.667969 53.558594 C 36.625 44.835938 36.933594 36.125 37.59375 27.421875 C 37.546875 26.519531 37.175781 25.785156 36.480469 25.214844 Z M 36.480469 25.214844 "/>
</g>
<mask id="mask24">
  <g filter="url(#alpha)">
<rect x="0" y="0" width="60" height="60" style="fill:rgb(0%,0%,0%);fill-opacity:0.568627;stroke:none;"/>
  </g>
</mask>
<clipPath id="clip25">
  <rect x="0" y="0" width="60" height="60"/>
</clipPath>
<g id="surface77" clip-path="url(#clip25)">
<path style=" stroke:none;fill-rule:evenodd;fill:rgb(90.588235%,60.784314%,72.54902%);fill-opacity:1;" d="M 17.222656 34.050781 C 17.222656 34.90625 17.222656 35.765625 17.222656 36.625 C 17.222656 41.554688 16.972656 46.464844 16.480469 51.351562 C 16.714844 51.6875 16.835938 52.054688 16.851562 52.453125 C 16.625 52.414062 16.4375 52.289062 16.296875 52.085938 C 16.226562 46.003906 16.535156 39.988281 17.222656 34.050781 Z M 17.222656 34.050781 "/>
</g>
<mask id="mask25">
  <g filter="url(#alpha)">
<rect x="0" y="0" width="60" height="60" style="fill:rgb(0%,0%,0%);fill-opacity:0.709804;stroke:none;"/>
  </g>
</mask>
<clipPath id="clip26">
  <rect x="0" y="0" width="60" height="60"/>
</clipPath>
<g id="surface80" clip-path="url(#clip26)">
<path style=" stroke:none;fill-rule:evenodd;fill:rgb(90.196078%,59.215686%,72.156863%);fill-opacity:1;" d="M 19.816406 22.636719 C 19.605469 23.664062 19.484375 24.707031 19.445312 25.765625 C 20.105469 34.777344 20.414062 43.792969 20.371094 52.820312 C 19.496094 53.613281 18.570312 53.734375 17.59375 53.191406 C 18.535156 53.335938 19.335938 53.089844 20 52.453125 C 19.882812 44.046875 19.574219 35.640625 19.074219 27.238281 C 19.136719 25.828125 19.199219 24.417969 19.257812 23.007812 C 19.402344 22.800781 19.585938 22.679688 19.816406 22.636719 Z M 19.816406 22.636719 "/>
</g>
<mask id="mask26">
  <g filter="url(#alpha)">
<rect x="0" y="0" width="60" height="60" style="fill:rgb(0%,0%,0%);fill-opacity:0.517647;stroke:none;"/>
  </g>
</mask>
<clipPath id="clip27">
  <rect x="0" y="0" width="60" height="60"/>
</clipPath>
<g id="surface83" clip-path="url(#clip27)">
<path style=" stroke:none;fill-rule:evenodd;fill:rgb(90.588235%,61.960784%,73.333333%);fill-opacity:1;" d="M 44.257812 23.375 C 43.363281 24.128906 42.992188 25.109375 43.148438 26.320312 C 43.746094 35.148438 44.054688 43.980469 44.074219 52.820312 C 42.714844 54.292969 41.359375 54.292969 40 52.820312 C 39.695312 50.179688 39.757812 47.601562 40.183594 45.09375 C 40.183594 46.441406 40.183594 47.792969 40.183594 49.140625 C 40.125 50.253906 40.1875 51.355469 40.371094 52.453125 C 41.480469 53.4375 42.59375 53.4375 43.703125 52.453125 C 43.550781 44.234375 43.242188 36.011719 42.777344 27.792969 C 42.839844 26.5625 42.902344 25.335938 42.964844 24.109375 C 43.265625 23.625 43.699219 23.378906 44.257812 23.375 Z M 44.257812 23.375 "/>
</g>
<mask id="mask27">
  <g filter="url(#alpha)">
<rect x="0" y="0" width="60" height="60" style="fill:rgb(0%,0%,0%);fill-opacity:0.00784314;stroke:none;"/>
  </g>
</mask>
<clipPath id="clip28">
  <rect x="0" y="0" width="60" height="60"/>
</clipPath>
<g id="surface86" clip-path="url(#clip28)">
<path style=" stroke:none;fill-rule:evenodd;fill:rgb(95.686275%,54.901961%,62.745098%);fill-opacity:1;" d="M 46.480469 54.664062 C 46.480469 55.398438 46.109375 55.765625 45.371094 55.765625 C 45.617188 55.277344 45.988281 54.90625 46.480469 54.664062 Z M 46.480469 54.664062 "/>
</g>
<mask id="mask28">
  <g filter="url(#alpha)">
<rect x="0" y="0" width="60" height="60" style="fill:rgb(0%,0%,0%);fill-opacity:0.933333;stroke:none;"/>
  </g>
</mask>
<clipPath id="clip29">
  <rect x="0" y="0" width="60" height="60"/>
</clipPath>
<g id="surface89" clip-path="url(#clip29)">
<path style=" stroke:none;fill-rule:evenodd;fill:rgb(91.764706%,65.490196%,75.686275%);fill-opacity:1;" d="M 45 56.136719 C 43.335938 57.394531 41.609375 57.515625 39.816406 56.503906 C 41.5625 56.558594 43.289062 56.433594 45 56.136719 Z M 45 56.136719 "/>
</g>
<mask id="mask29">
  <g filter="url(#alpha)">
<rect x="0" y="0" width="60" height="60" style="fill:rgb(0%,0%,0%);fill-opacity:0.164706;stroke:none;"/>
  </g>
</mask>
<clipPath id="clip30">
  <rect x="0" y="0" width="60" height="60"/>
</clipPath>
<g id="surface92" clip-path="url(#clip30)">
<path style=" stroke:none;fill-rule:evenodd;fill:rgb(87.45098%,48.235294%,64.313725%);fill-opacity:1;" d="M 15.742188 56.136719 C 16.925781 56.609375 18.160156 56.855469 19.445312 56.871094 C 18.78125 57.285156 18.042969 57.34375 17.222656 57.054688 C 16.546875 56.980469 16.054688 56.675781 15.742188 56.136719 Z M 15.742188 56.136719 "/>
</g>
</defs>
<g id="surface1">
<use xlink:href="#surface5" mask="url(#mask0)"/>
<path style=" stroke:none;fill-rule:evenodd;fill:rgb(99.215686%,98.039216%,98.431373%);fill-opacity:1;" d="M 10.554688 3.863281 C 11.378906 3.746094 12.058594 3.992188 12.59375 4.601562 C 12.714844 9.386719 12.839844 14.171875 12.964844 18.957031 C 14.457031 20.503906 16 21.976562 17.59375 23.375 C 17.375 26.929688 17.25 30.488281 17.222656 34.050781 C 16.535156 39.988281 16.226562 46.003906 16.296875 52.085938 C 16.4375 52.289062 16.625 52.414062 16.851562 52.453125 C 16.976562 52.820312 17.222656 53.066406 17.59375 53.191406 C 18.570312 53.734375 19.496094 53.613281 20.371094 52.820312 C 20.414062 43.792969 20.105469 34.777344 19.445312 25.765625 C 19.484375 24.707031 19.605469 23.664062 19.816406 22.636719 C 20.925781 21.289062 22.160156 20.0625 23.519531 18.957031 C 24.191406 14.308594 24.5 9.523438 24.445312 4.601562 C 24.980469 3.992188 25.660156 3.746094 26.480469 3.863281 C 26.976562 9.507812 26.976562 15.152344 26.480469 20.796875 C 25.371094 22.148438 24.136719 23.375 22.777344 24.480469 C 22.53125 25.574219 22.40625 26.742188 22.40625 27.976562 C 23.144531 36.367188 23.453125 44.773438 23.332031 53.191406 C 22.863281 54.332031 22.183594 55.3125 21.296875 56.136719 C 20.820312 56.660156 20.203125 56.90625 19.445312 56.871094 C 18.160156 56.855469 16.925781 56.609375 15.742188 56.136719 C 15.175781 56.160156 14.804688 55.917969 14.628906 55.398438 C 13.617188 53.847656 13.125 52.132812 13.148438 50.246094 C 13.820312 42.09375 14.066406 33.996094 13.890625 25.949219 C 14.226562 25.496094 14.289062 25.003906 14.074219 24.480469 C 12.824219 23.300781 11.652344 22.074219 10.554688 20.796875 C 10.066406 15.140625 10.066406 9.5 10.554688 3.863281 Z M 10.554688 3.863281 "/>
<path style=" stroke:none;fill-rule:evenodd;fill:rgb(98.823529%,94.509804%,96.078431%);fill-opacity:1;" d="M 17.59375 4.601562 C 18.085938 9.265625 18.085938 13.925781 17.59375 18.589844 C 16.605469 19.078125 15.617188 19.078125 14.628906 18.589844 C 14.566406 13.925781 14.628906 9.261719 14.816406 4.601562 C 15.738281 3.648438 16.664062 3.648438 17.59375 4.601562 Z M 17.59375 4.601562 "/>
<path style=" stroke:none;fill-rule:evenodd;fill:rgb(99.607843%,99.607843%,99.607843%);fill-opacity:1;" d="M 21.667969 3.863281 C 21.789062 3.863281 21.914062 3.863281 22.035156 3.863281 C 22.097656 8.773438 22.035156 13.683594 21.851562 18.589844 C 21.097656 18.929688 20.292969 19.050781 19.445312 18.957031 C 19.445312 18.835938 19.445312 18.710938 19.445312 18.589844 C 19.382812 13.925781 19.445312 9.261719 19.628906 4.601562 C 20.164062 3.992188 20.84375 3.746094 21.667969 3.863281 Z M 21.667969 3.863281 "/>
<path style=" stroke:none;fill-rule:evenodd;fill:rgb(99.215686%,97.647059%,98.431373%);fill-opacity:1;" d="M 44.257812 3.863281 C 46.171875 4.292969 47.527344 5.398438 48.332031 7.179688 C 48.8125 8.980469 49.429688 10.695312 50.183594 12.332031 C 50.476562 15.027344 50.539062 17.726562 50.371094 20.429688 C 49.933594 21.542969 49.5 22.644531 49.074219 23.742188 C 48.703125 24.601562 48.085938 25.214844 47.222656 25.582031 C 46.851562 25.550781 46.542969 25.675781 46.296875 25.949219 C 46.554688 33.371094 46.863281 40.792969 47.222656 48.222656 C 47.167969 50.253906 47.042969 52.277344 46.851562 54.292969 C 46.851562 54.539062 46.730469 54.664062 46.480469 54.664062 C 45.988281 54.90625 45.617188 55.277344 45.371094 55.765625 C 45.371094 56.011719 45.246094 56.136719 45 56.136719 C 43.289062 56.433594 41.5625 56.558594 39.816406 56.503906 C 38.855469 56.164062 38.113281 55.550781 37.59375 54.664062 C 37.039062 52.875 36.792969 51.035156 36.851562 49.140625 C 37.25 41.40625 37.5625 33.675781 37.777344 25.949219 C 37.476562 25.464844 37.042969 25.21875 36.480469 25.214844 C 35.863281 24.847656 35.371094 24.355469 35 23.742188 C 33.296875 19.679688 33.046875 15.507812 34.257812 11.226562 C 34.839844 10.226562 35.210938 9.125 35.371094 7.914062 C 35.308594 7.550781 35.429688 7.304688 35.742188 7.179688 C 36.726562 6.441406 37.59375 5.582031 38.332031 4.601562 C 40.25 3.980469 42.226562 3.734375 44.257812 3.863281 Z M 44.257812 7.546875 C 44.382812 7.914062 44.628906 8.160156 45 8.28125 C 46.929688 12.28125 47.484375 16.449219 46.667969 20.796875 C 46.039062 21.847656 45.238281 22.707031 44.257812 23.375 C 43.699219 23.378906 43.265625 23.625 42.964844 24.109375 C 42.902344 25.335938 42.839844 26.5625 42.777344 27.792969 C 43.242188 36.011719 43.550781 44.234375 43.703125 52.453125 C 42.59375 53.4375 41.480469 53.4375 40.371094 52.453125 C 40.1875 51.355469 40.125 50.253906 40.183594 49.140625 C 40.859375 40.867188 41.167969 32.523438 41.109375 24.109375 C 40.558594 23.5 39.882812 23.132812 39.074219 23.007812 C 38.703125 22.394531 38.210938 21.902344 37.59375 21.535156 C 37.570312 21.125 37.449219 20.757812 37.222656 20.429688 C 36.734375 17.191406 36.984375 14 37.964844 10.859375 C 38.421875 10.066406 38.792969 9.207031 39.074219 8.28125 C 39.320312 8.28125 39.445312 8.160156 39.445312 7.914062 C 40.992188 7.105469 42.597656 6.984375 44.257812 7.546875 Z M 44.257812 7.546875 "/>
<path style=" stroke:none;fill-rule:evenodd;fill:rgb(93.333333%,72.941176%,80.784314%);fill-opacity:1;" d="M 10.554688 3.863281 C 10.066406 9.5 10.066406 15.140625 10.554688 20.796875 C 10.199219 20.632812 9.890625 20.386719 9.628906 20.0625 C 9.382812 14.90625 9.382812 9.753906 9.628906 4.601562 C 9.785156 4.140625 10.09375 3.894531 10.554688 3.863281 Z M 10.554688 3.863281 "/>
<use xlink:href="#surface8" mask="url(#mask1)"/>
<use xlink:href="#surface11" mask="url(#mask2)"/>
<use xlink:href="#surface14" mask="url(#mask3)"/>
<use xlink:href="#surface17" mask="url(#mask4)"/>
<use xlink:href="#surface20" mask="url(#mask5)"/>
<use xlink:href="#surface23" mask="url(#mask6)"/>
<use xlink:href="#surface26" mask="url(#mask7)"/>
<use xlink:href="#surface29" mask="url(#mask8)"/>
<use xlink:href="#surface32" mask="url(#mask9)"/>
<use xlink:href="#surface35" mask="url(#mask10)"/>
<use xlink:href="#surface38" mask="url(#mask11)"/>
<use xlink:href="#surface41" mask="url(#mask12)"/>
<use xlink:href="#surface44" mask="url(#mask13)"/>
<use xlink:href="#surface47" mask="url(#mask14)"/>
<use xlink:href="#surface50" mask="url(#mask15)"/>
<use xlink:href="#surface53" mask="url(#mask16)"/>
<use xlink:href="#surface56" mask="url(#mask17)"/>
<use xlink:href="#surface59" mask="url(#mask18)"/>
<use xlink:href="#surface62" mask="url(#mask19)"/>
<use xlink:href="#surface65" mask="url(#mask20)"/>
<use xlink:href="#surface68" mask="url(#mask21)"/>
<use xlink:href="#surface71" mask="url(#mask22)"/>
<use xlink:href="#surface74" mask="url(#mask23)"/>
<use xlink:href="#surface77" mask="url(#mask24)"/>
<use xlink:href="#surface80" mask="url(#mask25)"/>
<use xlink:href="#surface83" mask="url(#mask26)"/>
<use xlink:href="#surface86" mask="url(#mask27)"/>
<use xlink:href="#surface89" mask="url(#mask28)"/>
<use xlink:href="#surface92" mask="url(#mask29)"/>
</g>
</svg>
