<?xml version="1.0" encoding="UTF-8"?>
<!DOCTYPE svg PUBLIC "-//W3C//DTD SVG 1.1//EN" "http://www.w3.org/Graphics/SVG/1.1/DTD/svg11.dtd">
<svg xmlns="http://www.w3.org/2000/svg" version="1.1" width="164px" height="164px" style="shape-rendering:geometricPrecision; text-rendering:geometricPrecision; image-rendering:optimizeQuality; fill-rule:evenodd; clip-rule:evenodd" xmlns:xlink="http://www.w3.org/1999/xlink">
<g><path style="opacity:1" fill="#fafbfb" d="M 117.5,51.5 C 115.26,45.3504 112.26,39.6837 108.5,34.5C 106.983,30.6298 105.316,26.7964 103.5,23C 104.447,19.9277 106.447,18.9277 109.5,20C 116.373,32.9134 123.373,45.7467 130.5,58.5C 137.188,59.2407 143.854,59.9073 150.5,60.5C 152.519,66.2597 153.019,72.2597 152,78.5C 150.493,81.4264 148.159,83.4264 145,84.5C 140.83,104.685 135.663,124.518 129.5,144C 98.1667,144.667 66.8333,144.667 35.5,144C 35,143.5 34.5,143 34,142.5C 29.3333,123.167 24.6667,103.833 20,84.5C 17.3145,83.3241 14.9812,81.6575 13,79.5C 12.3333,74.1667 12.3333,68.8333 13,63.5C 13.5,61.6667 14.6667,60.5 16.5,60C 22.1667,59.6667 27.8333,59.3333 33.5,59C 40.7143,46.7403 47.5477,34.2403 54,21.5C 59.6698,18.1535 61.6698,19.8202 60,26.5C 53.9407,37.2853 48.4407,48.2853 43.5,59.5C 69.5,59.5 95.5,59.5 121.5,59.5C 121.206,56.2459 119.873,53.5792 117.5,51.5 Z M 20.5,67.5 C 61.5,67.5 102.5,67.5 143.5,67.5C 143.5,69.8333 143.5,72.1667 143.5,74.5C 102.5,74.5 61.5,74.5 20.5,74.5C 20.5,72.1667 20.5,69.8333 20.5,67.5 Z M 57.5,85.5 C 63.979,84.5093 70.6457,84.176 77.5,84.5C 77.5,91.1667 77.5,97.8333 77.5,104.5C 71.8333,104.5 66.1667,104.5 60.5,104.5C 59.7334,98.0003 58.7334,91.667 57.5,85.5 Z M 28.5,85.5 C 34.6446,84.5098 40.9779,84.1765 47.5,84.5C 48.4953,91.1299 49.162,97.7965 49.5,104.5C 44.1667,104.5 38.8333,104.5 33.5,104.5C 32.2778,97.9391 30.6112,91.6058 28.5,85.5 Z M 87.5,84.5 C 93.8333,84.5 100.167,84.5 106.5,84.5C 106.162,91.2035 105.495,97.8701 104.5,104.5C 98.8333,104.5 93.1667,104.5 87.5,104.5C 87.5,97.8333 87.5,91.1667 87.5,84.5 Z M 117.5,84.5 C 123.5,84.5 129.5,84.5 135.5,84.5C 134.295,91.1924 132.962,97.859 131.5,104.5C 125.824,104.666 120.157,104.499 114.5,104C 115.701,97.564 116.701,91.064 117.5,84.5 Z M 36.5,115.5 C 41.5,115.5 46.5,115.5 51.5,115.5C 52.331,122.149 52.9977,128.815 53.5,135.5C 49.1667,135.5 44.8333,135.5 40.5,135.5C 39.4834,128.768 38.1501,122.101 36.5,115.5 Z M 61.5,115.5 C 66.8333,115.5 72.1667,115.5 77.5,115.5C 77.5,122.167 77.5,128.833 77.5,135.5C 73.1161,135.826 68.7828,135.492 64.5,134.5C 63.4179,128.176 62.4179,121.842 61.5,115.5 Z M 113.5,115.5 C 118.544,115.173 123.544,115.506 128.5,116.5C 126.938,122.474 125.438,128.474 124,134.5C 119.934,135.464 115.767,135.797 111.5,135.5C 111.838,128.797 112.505,122.13 113.5,115.5 Z M 87.5,115.5 C 92.8437,115.334 98.1771,115.501 103.5,116C 102.299,122.436 101.299,128.936 100.5,135.5C 96.1667,135.5 91.8333,135.5 87.5,135.5C 87.5,128.833 87.5,122.167 87.5,115.5 Z"/></g>
<g><path style="opacity:0.694" fill="#8796a7" d="M 150.5,60.5 C 143.854,59.9073 137.188,59.2407 130.5,58.5C 123.373,45.7467 116.373,32.9134 109.5,20C 106.447,18.9277 104.447,19.9277 103.5,23C 105.316,26.7964 106.983,30.6298 108.5,34.5C 105.609,31.2203 103.609,27.3869 102.5,23C 103.66,18.4195 106.327,17.0861 110.5,19C 117.246,31.8275 124.246,44.4942 131.5,57C 136.833,57.3333 142.167,57.6667 147.5,58C 148.942,58.3768 149.942,59.2101 150.5,60.5 Z"/></g>
<g><path style="opacity:0.839" fill="#8695a6" d="M 108.5,34.5 C 112.26,39.6837 115.26,45.3504 117.5,51.5C 113.74,46.3163 110.74,40.6496 108.5,34.5 Z"/></g>
<g><path style="opacity:0.863" fill="#8897a7" d="M 117.5,51.5 C 119.873,53.5792 121.206,56.2459 121.5,59.5C 95.5,59.5 69.5,59.5 43.5,59.5C 48.4407,48.2853 53.9407,37.2853 60,26.5C 61.6698,19.8202 59.6698,18.1535 54,21.5C 47.5477,34.2403 40.7143,46.7403 33.5,59C 27.8333,59.3333 22.1667,59.6667 16.5,60C 14.6667,60.5 13.5,61.6667 13,63.5C 12.3333,68.8333 12.3333,74.1667 13,79.5C 14.9812,81.6575 17.3145,83.3241 20,84.5C 24.6667,103.833 29.3333,123.167 34,142.5C 34.5,143 35,143.5 35.5,144C 66.8333,144.667 98.1667,144.667 129.5,144C 135.663,124.518 140.83,104.685 145,84.5C 148.159,83.4264 150.493,81.4264 152,78.5C 153.019,72.2597 152.519,66.2597 150.5,60.5C 152.61,61.4525 153.777,63.1192 154,65.5C 156.577,74.6547 153.91,81.6547 146,86.5C 141.667,104.5 137.333,122.5 133,140.5C 132.727,142.329 131.893,143.829 130.5,145C 98.5,145.667 66.5,145.667 34.5,145C 33.2986,144.097 32.4652,142.931 32,141.5C 27.5781,122.979 23.0781,104.479 18.5,86C 14.939,84.1055 12.439,81.2722 11,77.5C 9.88978,71.5743 10.5564,65.9077 13,60.5C 14.4194,59.5399 15.9194,58.7065 17.5,58C 22.8333,57.6667 28.1667,57.3333 33.5,57C 40.1273,44.9127 46.6273,32.7461 53,20.5C 56,16.5 59,16.5 62,20.5C 62.6667,22.1667 62.6667,23.8333 62,25.5C 56.5,35.8333 51,46.1667 45.5,56.5C 70.1667,57.8333 94.8333,57.8333 119.5,56.5C 118.544,54.9246 117.877,53.258 117.5,51.5 Z M 20.5,67.5 C 20.5,69.8333 20.5,72.1667 20.5,74.5C 61.5,74.5 102.5,74.5 143.5,74.5C 143.5,72.1667 143.5,69.8333 143.5,67.5C 102.5,67.5 61.5,67.5 20.5,67.5 Z M 57.5,85.5 C 58.7334,91.667 59.7334,98.0003 60.5,104.5C 66.1667,104.5 71.8333,104.5 77.5,104.5C 77.5,97.8333 77.5,91.1667 77.5,84.5C 70.6457,84.176 63.979,84.5093 57.5,85.5 Z M 28.5,85.5 C 30.6112,91.6058 32.2778,97.9391 33.5,104.5C 38.8333,104.5 44.1667,104.5 49.5,104.5C 49.162,97.7965 48.4953,91.1299 47.5,84.5C 40.9779,84.1765 34.6446,84.5098 28.5,85.5 Z M 87.5,84.5 C 87.5,91.1667 87.5,97.8333 87.5,104.5C 93.1667,104.5 98.8333,104.5 104.5,104.5C 105.495,97.8701 106.162,91.2035 106.5,84.5C 100.167,84.5 93.8333,84.5 87.5,84.5 Z M 117.5,84.5 C 116.701,91.064 115.701,97.564 114.5,104C 120.157,104.499 125.824,104.666 131.5,104.5C 132.962,97.859 134.295,91.1924 135.5,84.5C 129.5,84.5 123.5,84.5 117.5,84.5 Z M 36.5,115.5 C 38.1501,122.101 39.4834,128.768 40.5,135.5C 44.8333,135.5 49.1667,135.5 53.5,135.5C 52.9977,128.815 52.331,122.149 51.5,115.5C 46.5,115.5 41.5,115.5 36.5,115.5 Z M 61.5,115.5 C 62.4179,121.842 63.4179,128.176 64.5,134.5C 68.7828,135.492 73.1161,135.826 77.5,135.5C 77.5,128.833 77.5,122.167 77.5,115.5C 72.1667,115.5 66.8333,115.5 61.5,115.5 Z M 113.5,115.5 C 112.505,122.13 111.838,128.797 111.5,135.5C 115.767,135.797 119.934,135.464 124,134.5C 125.438,128.474 126.938,122.474 128.5,116.5C 123.544,115.506 118.544,115.173 113.5,115.5 Z M 87.5,115.5 C 87.5,122.167 87.5,128.833 87.5,135.5C 91.8333,135.5 96.1667,135.5 100.5,135.5C 101.299,128.936 102.299,122.436 103.5,116C 98.1771,115.501 92.8437,115.334 87.5,115.5 Z"/></g>
<g><path style="opacity:0.577" fill="#7a8c9d" d="M 19.5,66.5 C 61.5,66.5 103.5,66.5 145.5,66.5C 145.5,69.5 145.5,72.5 145.5,75.5C 103.5,75.5 61.5,75.5 19.5,75.5C 19.5,72.5 19.5,69.5 19.5,66.5 Z M 20.5,67.5 C 20.5,69.8333 20.5,72.1667 20.5,74.5C 61.5,74.5 102.5,74.5 143.5,74.5C 143.5,72.1667 143.5,69.8333 143.5,67.5C 102.5,67.5 61.5,67.5 20.5,67.5 Z"/></g>
<g><path style="opacity:0.808" fill="#8092a1" d="M 56.5,83.5 C 63.8333,83.5 71.1667,83.5 78.5,83.5C 78.5,91.1667 78.5,98.8333 78.5,106.5C 71.9102,106.811 65.4102,106.478 59,105.5C 57.9461,98.1839 57.1128,90.8506 56.5,83.5 Z M 57.5,85.5 C 58.7334,91.667 59.7334,98.0003 60.5,104.5C 66.1667,104.5 71.8333,104.5 77.5,104.5C 77.5,97.8333 77.5,91.1667 77.5,84.5C 70.6457,84.176 63.979,84.5093 57.5,85.5 Z"/></g>
<g><path style="opacity:0.988" fill="#7e929f" d="M 27.5,83.5 C 34.8333,83.5 42.1667,83.5 49.5,83.5C 50.0843,91.1743 50.751,98.8409 51.5,106.5C 45.1667,106.5 38.8333,106.5 32.5,106.5C 30.6239,98.8735 28.9572,91.2068 27.5,83.5 Z M 28.5,85.5 C 30.6112,91.6058 32.2778,97.9391 33.5,104.5C 38.8333,104.5 44.1667,104.5 49.5,104.5C 49.162,97.7965 48.4953,91.1299 47.5,84.5C 40.9779,84.1765 34.6446,84.5098 28.5,85.5 Z"/></g>
<g><path style="opacity:0.988" fill="#7c909e" d="M 86.5,83.5 C 93.8333,83.5 101.167,83.5 108.5,83.5C 107.34,90.7822 106.507,98.1156 106,105.5C 99.5898,106.478 93.0898,106.811 86.5,106.5C 86.5,98.8333 86.5,91.1667 86.5,83.5 Z M 87.5,84.5 C 87.5,91.1667 87.5,97.8333 87.5,104.5C 93.1667,104.5 98.8333,104.5 104.5,104.5C 105.495,97.8701 106.162,91.2035 106.5,84.5C 100.167,84.5 93.8333,84.5 87.5,84.5 Z"/></g>
<g><path style="opacity:0.988" fill="#8092a1" d="M 115.5,83.5 C 122.833,83.5 130.167,83.5 137.5,83.5C 135.675,91.1332 134.008,98.7999 132.5,106.5C 126.167,106.5 119.833,106.5 113.5,106.5C 113.755,98.7944 114.422,91.1278 115.5,83.5 Z M 117.5,84.5 C 116.701,91.064 115.701,97.564 114.5,104C 120.157,104.499 125.824,104.666 131.5,104.5C 132.962,97.859 134.295,91.1924 135.5,84.5C 129.5,84.5 123.5,84.5 117.5,84.5 Z"/></g>
<g><path style="opacity:0.288" fill="#8998a8" d="M 34.5,113.5 C 40.7576,113.19 46.9242,113.524 53,114.5C 53.9166,122.165 54.7499,129.832 55.5,137.5C 50.2384,137.805 45.0717,137.471 40,136.5C 38.0038,128.849 36.1705,121.183 34.5,113.5 Z M 36.5,115.5 C 38.1501,122.101 39.4834,128.768 40.5,135.5C 44.8333,135.5 49.1667,135.5 53.5,135.5C 52.9977,128.815 52.331,122.149 51.5,115.5C 46.5,115.5 41.5,115.5 36.5,115.5 Z"/></g>
<g><path style="opacity:0.353" fill="#8695a5" d="M 60.5,113.5 C 66.5,113.5 72.5,113.5 78.5,113.5C 78.5,121.5 78.5,129.5 78.5,137.5C 73.2384,137.805 68.0717,137.471 63,136.5C 62.0834,128.835 61.2501,121.168 60.5,113.5 Z M 61.5,115.5 C 62.4179,121.842 63.4179,128.176 64.5,134.5C 68.7828,135.492 73.1161,135.826 77.5,135.5C 77.5,128.833 77.5,122.167 77.5,115.5C 72.1667,115.5 66.8333,115.5 61.5,115.5 Z"/></g>
<g><path style="opacity:0.937" fill="#8897a8" d="M 112.5,113.5 C 118.5,113.5 124.5,113.5 130.5,113.5C 128.514,121.111 126.681,128.778 125,136.5C 119.928,137.471 114.762,137.805 109.5,137.5C 109.952,129.388 110.952,121.388 112.5,113.5 Z M 113.5,115.5 C 112.505,122.13 111.838,128.797 111.5,135.5C 115.767,135.797 119.934,135.464 124,134.5C 125.438,128.474 126.938,122.474 128.5,116.5C 123.544,115.506 118.544,115.173 113.5,115.5 Z"/></g>
<g><path style="opacity:0.788" fill="#8897a7" d="M 86.5,113.5 C 92.5,113.5 98.5,113.5 104.5,113.5C 103.586,121.149 102.752,128.816 102,136.5C 96.9283,137.471 91.7616,137.805 86.5,137.5C 86.5,129.5 86.5,121.5 86.5,113.5 Z M 87.5,115.5 C 87.5,122.167 87.5,128.833 87.5,135.5C 91.8333,135.5 96.1667,135.5 100.5,135.5C 101.299,128.936 102.299,122.436 103.5,116C 98.1771,115.501 92.8437,115.334 87.5,115.5 Z"/></g>
</svg>
