<?xml version="1.0" encoding="UTF-8"?>
<svg xmlns="http://www.w3.org/2000/svg" xmlns:xlink="http://www.w3.org/1999/xlink" width="60px" height="60px" viewBox="0 0 60 60" version="1.1">
<defs>
<filter id="alpha" filterUnits="objectBoundingBox" x="0%" y="0%" width="100%" height="100%">
  <feColorMatrix type="matrix" in="SourceGraphic" values="0 0 0 0 1 0 0 0 0 1 0 0 0 0 1 0 0 0 1 0"/>
</filter>
<mask id="mask0">
  <g filter="url(#alpha)">
<rect x="0" y="0" width="60" height="60" style="fill:rgb(0%,0%,0%);fill-opacity:0.694118;stroke:none;"/>
  </g>
</mask>
<clipPath id="clip1">
  <rect x="0" y="0" width="60" height="60"/>
</clipPath>
<g id="surface5" clip-path="url(#clip1)">
<path style=" stroke:none;fill-rule:evenodd;fill:rgb(52.941176%,58.823529%,65.490196%);fill-opacity:1;" d="M 55.0625 22.132812 C 52.628906 21.917969 50.191406 21.671875 47.742188 21.402344 C 45.136719 16.738281 42.574219 12.042969 40.0625 7.316406 C 38.945312 6.925781 38.210938 7.289062 37.867188 8.414062 C 38.53125 9.804688 39.140625 11.207031 39.695312 12.621094 C 38.636719 11.421875 37.90625 10.019531 37.5 8.414062 C 37.925781 6.738281 38.898438 6.25 40.425781 6.953125 C 42.894531 11.644531 45.457031 16.277344 48.109375 20.855469 C 50.0625 20.976562 52.011719 21.097656 53.964844 21.21875 C 54.492188 21.355469 54.855469 21.664062 55.0625 22.132812 Z M 55.0625 22.132812 "/>
</g>
<mask id="mask1">
  <g filter="url(#alpha)">
<rect x="0" y="0" width="60" height="60" style="fill:rgb(0%,0%,0%);fill-opacity:0.839216;stroke:none;"/>
  </g>
</mask>
<clipPath id="clip2">
  <rect x="0" y="0" width="60" height="60"/>
</clipPath>
<g id="surface8" clip-path="url(#clip2)">
<path style=" stroke:none;fill-rule:evenodd;fill:rgb(52.54902%,58.431373%,65.098039%);fill-opacity:1;" d="M 39.695312 12.621094 C 41.070312 14.519531 42.167969 16.589844 42.988281 18.839844 C 41.613281 16.945312 40.515625 14.871094 39.695312 12.621094 Z M 39.695312 12.621094 "/>
</g>
<mask id="mask2">
  <g filter="url(#alpha)">
<rect x="0" y="0" width="60" height="60" style="fill:rgb(0%,0%,0%);fill-opacity:0.862745;stroke:none;"/>
  </g>
</mask>
<clipPath id="clip3">
  <rect x="0" y="0" width="60" height="60"/>
</clipPath>
<g id="surface11" clip-path="url(#clip3)">
<path style=" stroke:none;fill-rule:evenodd;fill:rgb(53.333333%,59.215686%,65.490196%);fill-opacity:1;" d="M 42.988281 18.839844 C 43.855469 19.601562 44.34375 20.578125 44.453125 21.769531 C 34.9375 21.769531 25.425781 21.769531 15.914062 21.769531 C 17.722656 17.664062 19.734375 13.640625 21.953125 9.695312 C 22.5625 7.25 21.832031 6.640625 19.757812 7.867188 C 17.394531 12.527344 14.894531 17.101562 12.257812 21.585938 C 10.183594 21.707031 8.109375 21.828125 6.035156 21.953125 C 5.367188 22.132812 4.9375 22.5625 4.757812 23.230469 C 4.511719 25.183594 4.511719 27.132812 4.757812 29.085938 C 5.480469 29.875 6.335938 30.484375 7.316406 30.914062 C 9.023438 37.988281 10.730469 45.0625 12.4375 52.132812 C 12.621094 52.316406 12.804688 52.5 12.988281 52.683594 C 24.453125 52.925781 35.914062 52.925781 47.378906 52.683594 C 49.632812 45.554688 51.523438 38.300781 53.046875 30.914062 C 54.203125 30.523438 55.058594 29.789062 55.609375 28.71875 C 55.984375 26.4375 55.800781 24.242188 55.0625 22.132812 C 55.832031 22.484375 56.261719 23.09375 56.339844 23.964844 C 57.285156 27.3125 56.308594 29.875 53.414062 31.644531 C 51.828125 38.230469 50.242188 44.816406 48.660156 51.402344 C 48.558594 52.070312 48.253906 52.621094 47.742188 53.046875 C 36.035156 53.292969 24.328125 53.292969 12.621094 53.046875 C 12.183594 52.71875 11.878906 52.292969 11.707031 51.769531 C 10.089844 44.992188 8.441406 38.222656 6.769531 31.464844 C 5.464844 30.769531 4.550781 29.734375 4.023438 28.355469 C 3.617188 26.1875 3.863281 24.113281 4.757812 22.132812 C 5.273438 21.78125 5.824219 21.476562 6.402344 21.21875 C 8.355469 21.097656 10.304688 20.976562 12.257812 20.855469 C 14.679688 16.429688 17.058594 11.980469 19.390625 7.5 C 20.488281 6.035156 21.585938 6.035156 22.683594 7.5 C 22.925781 8.109375 22.925781 8.71875 22.683594 9.328125 C 20.671875 13.109375 18.660156 16.890625 16.644531 20.671875 C 25.671875 21.160156 34.695312 21.160156 43.71875 20.671875 C 43.371094 20.09375 43.125 19.484375 42.988281 18.839844 Z M 7.5 24.695312 C 7.5 25.546875 7.5 26.402344 7.5 27.257812 C 22.5 27.257812 37.5 27.257812 52.5 27.257812 C 52.5 26.402344 52.5 25.546875 52.5 24.695312 C 37.5 24.695312 22.5 24.695312 7.5 24.695312 Z M 21.035156 31.28125 C 21.488281 33.535156 21.855469 35.855469 22.132812 38.230469 C 24.207031 38.230469 26.28125 38.230469 28.355469 38.230469 C 28.355469 35.792969 28.355469 33.355469 28.355469 30.914062 C 25.847656 30.796875 23.40625 30.917969 21.035156 31.28125 Z M 10.425781 31.28125 C 11.199219 33.515625 11.808594 35.832031 12.257812 38.230469 C 14.207031 38.230469 16.160156 38.230469 18.109375 38.230469 C 17.984375 35.777344 17.742188 33.339844 17.378906 30.914062 C 14.992188 30.796875 12.675781 30.917969 10.425781 31.28125 Z M 32.011719 30.914062 C 32.011719 33.355469 32.011719 35.792969 32.011719 38.230469 C 34.085938 38.230469 36.160156 38.230469 38.230469 38.230469 C 38.597656 35.804688 38.839844 33.367188 38.964844 30.914062 C 36.644531 30.914062 34.328125 30.914062 32.011719 30.914062 Z M 42.988281 30.914062 C 42.695312 33.316406 42.328125 35.695312 41.890625 38.046875 C 43.960938 38.230469 46.03125 38.292969 48.109375 38.230469 C 48.644531 35.800781 49.132812 33.363281 49.574219 30.914062 C 47.378906 30.914062 45.183594 30.914062 42.988281 30.914062 Z M 13.355469 42.257812 C 13.957031 44.671875 14.445312 47.109375 14.816406 49.574219 C 16.402344 49.574219 17.988281 49.574219 19.574219 49.574219 C 19.390625 47.128906 19.144531 44.6875 18.839844 42.257812 C 17.011719 42.257812 15.183594 42.257812 13.355469 42.257812 Z M 22.5 42.257812 C 22.835938 44.578125 23.203125 46.894531 23.597656 49.207031 C 25.164062 49.570312 26.75 49.691406 28.355469 49.574219 C 28.355469 47.132812 28.355469 44.695312 28.355469 42.257812 C 26.402344 42.257812 24.453125 42.257812 22.5 42.257812 Z M 41.523438 42.257812 C 41.160156 44.683594 40.917969 47.121094 40.792969 49.574219 C 42.355469 49.683594 43.878906 49.558594 45.367188 49.207031 C 45.890625 47.003906 46.441406 44.808594 47.011719 42.621094 C 45.199219 42.257812 43.371094 42.136719 41.523438 42.257812 Z M 32.011719 42.257812 C 32.011719 44.695312 32.011719 47.132812 32.011719 49.574219 C 33.597656 49.574219 35.183594 49.574219 36.769531 49.574219 C 37.0625 47.171875 37.425781 44.792969 37.867188 42.4375 C 35.917969 42.257812 33.96875 42.195312 32.011719 42.257812 Z M 32.011719 42.257812 "/>
</g>
<mask id="mask3">
  <g filter="url(#alpha)">
<rect x="0" y="0" width="60" height="60" style="fill:rgb(0%,0%,0%);fill-opacity:0.576471;stroke:none;"/>
  </g>
</mask>
<clipPath id="clip4">
  <rect x="0" y="0" width="60" height="60"/>
</clipPath>
<g id="surface14" clip-path="url(#clip4)">
<path style=" stroke:none;fill-rule:evenodd;fill:rgb(47.843137%,54.901961%,61.568627%);fill-opacity:1;" d="M 7.132812 24.328125 C 22.5 24.328125 37.867188 24.328125 53.230469 24.328125 C 53.230469 25.425781 53.230469 26.523438 53.230469 27.621094 C 37.867188 27.621094 22.5 27.621094 7.132812 27.621094 C 7.132812 26.523438 7.132812 25.425781 7.132812 24.328125 Z M 7.5 24.695312 C 7.5 25.546875 7.5 26.402344 7.5 27.257812 C 22.5 27.257812 37.5 27.257812 52.5 27.257812 C 52.5 26.402344 52.5 25.546875 52.5 24.695312 C 37.5 24.695312 22.5 24.695312 7.5 24.695312 Z M 7.5 24.695312 "/>
</g>
<mask id="mask4">
  <g filter="url(#alpha)">
<rect x="0" y="0" width="60" height="60" style="fill:rgb(0%,0%,0%);fill-opacity:0.807843;stroke:none;"/>
  </g>
</mask>
<clipPath id="clip5">
  <rect x="0" y="0" width="60" height="60"/>
</clipPath>
<g id="surface17" clip-path="url(#clip5)">
<path style=" stroke:none;fill-rule:evenodd;fill:rgb(50.196078%,57.254902%,63.137255%);fill-opacity:1;" d="M 20.671875 30.546875 C 23.355469 30.546875 26.035156 30.546875 28.71875 30.546875 C 28.71875 33.355469 28.71875 36.160156 28.71875 38.964844 C 26.308594 39.078125 23.929688 38.957031 21.585938 38.597656 C 21.199219 35.921875 20.894531 33.238281 20.671875 30.546875 Z M 21.035156 31.28125 C 21.488281 33.535156 21.855469 35.855469 22.132812 38.230469 C 24.207031 38.230469 26.28125 38.230469 28.355469 38.230469 C 28.355469 35.792969 28.355469 33.355469 28.355469 30.914062 C 25.847656 30.796875 23.40625 30.917969 21.035156 31.28125 Z M 21.035156 31.28125 "/>
</g>
<mask id="mask5">
  <g filter="url(#alpha)">
<rect x="0" y="0" width="60" height="60" style="fill:rgb(0%,0%,0%);fill-opacity:0.988235;stroke:none;"/>
  </g>
</mask>
<clipPath id="clip6">
  <rect x="0" y="0" width="60" height="60"/>
</clipPath>
<g id="surface20" clip-path="url(#clip6)">
<path style=" stroke:none;fill-rule:evenodd;fill:rgb(49.411765%,57.254902%,62.352941%);fill-opacity:1;" d="M 10.0625 30.546875 C 12.742188 30.546875 15.425781 30.546875 18.109375 30.546875 C 18.324219 33.355469 18.566406 36.160156 18.839844 38.964844 C 16.523438 38.964844 14.207031 38.964844 11.890625 38.964844 C 11.203125 36.171875 10.59375 33.367188 10.0625 30.546875 Z M 10.425781 31.28125 C 11.199219 33.515625 11.808594 35.832031 12.257812 38.230469 C 14.207031 38.230469 16.160156 38.230469 18.109375 38.230469 C 17.984375 35.777344 17.742188 33.339844 17.378906 30.914062 C 14.992188 30.796875 12.675781 30.917969 10.425781 31.28125 Z M 10.425781 31.28125 "/>
</g>
<mask id="mask6">
  <g filter="url(#alpha)">
<rect x="0" y="0" width="60" height="60" style="fill:rgb(0%,0%,0%);fill-opacity:0.988235;stroke:none;"/>
  </g>
</mask>
<clipPath id="clip7">
  <rect x="0" y="0" width="60" height="60"/>
</clipPath>
<g id="surface23" clip-path="url(#clip7)">
<path style=" stroke:none;fill-rule:evenodd;fill:rgb(48.627451%,56.470588%,61.960784%);fill-opacity:1;" d="M 31.644531 30.546875 C 34.328125 30.546875 37.011719 30.546875 39.695312 30.546875 C 39.269531 33.214844 38.964844 35.894531 38.78125 38.597656 C 36.433594 38.957031 34.058594 39.078125 31.644531 38.964844 C 31.644531 36.160156 31.644531 33.355469 31.644531 30.546875 Z M 32.011719 30.914062 C 32.011719 33.355469 32.011719 35.792969 32.011719 38.230469 C 34.085938 38.230469 36.160156 38.230469 38.230469 38.230469 C 38.597656 35.804688 38.839844 33.367188 38.964844 30.914062 C 36.644531 30.914062 34.328125 30.914062 32.011719 30.914062 Z M 32.011719 30.914062 "/>
</g>
<mask id="mask7">
  <g filter="url(#alpha)">
<rect x="0" y="0" width="60" height="60" style="fill:rgb(0%,0%,0%);fill-opacity:0.988235;stroke:none;"/>
  </g>
</mask>
<clipPath id="clip8">
  <rect x="0" y="0" width="60" height="60"/>
</clipPath>
<g id="surface26" clip-path="url(#clip8)">
<path style=" stroke:none;fill-rule:evenodd;fill:rgb(50.196078%,57.254902%,63.137255%);fill-opacity:1;" d="M 42.257812 30.546875 C 44.9375 30.546875 47.621094 30.546875 50.304688 30.546875 C 49.636719 33.339844 49.027344 36.144531 48.476562 38.964844 C 46.160156 38.964844 43.839844 38.964844 41.523438 38.964844 C 41.617188 36.144531 41.863281 33.339844 42.257812 30.546875 Z M 42.988281 30.914062 C 42.695312 33.316406 42.328125 35.695312 41.890625 38.046875 C 43.960938 38.230469 46.03125 38.292969 48.109375 38.230469 C 48.644531 35.800781 49.132812 33.363281 49.574219 30.914062 C 47.378906 30.914062 45.183594 30.914062 42.988281 30.914062 Z M 42.988281 30.914062 "/>
</g>
<mask id="mask8">
  <g filter="url(#alpha)">
<rect x="0" y="0" width="60" height="60" style="fill:rgb(0%,0%,0%);fill-opacity:0.286275;stroke:none;"/>
  </g>
</mask>
<clipPath id="clip9">
  <rect x="0" y="0" width="60" height="60"/>
</clipPath>
<g id="surface29" clip-path="url(#clip9)">
<path style=" stroke:none;fill-rule:evenodd;fill:rgb(53.72549%,59.607843%,65.882353%);fill-opacity:1;" d="M 12.621094 41.523438 C 14.910156 41.410156 17.167969 41.53125 19.390625 41.890625 C 19.726562 44.695312 20.03125 47.5 20.304688 50.304688 C 18.378906 50.417969 16.488281 50.292969 14.632812 49.9375 C 13.902344 47.140625 13.234375 44.335938 12.621094 41.523438 Z M 13.355469 42.257812 C 13.957031 44.671875 14.445312 47.109375 14.816406 49.574219 C 16.402344 49.574219 17.988281 49.574219 19.574219 49.574219 C 19.390625 47.128906 19.144531 44.6875 18.839844 42.257812 C 17.011719 42.257812 15.183594 42.257812 13.355469 42.257812 Z M 13.355469 42.257812 "/>
</g>
<mask id="mask9">
  <g filter="url(#alpha)">
<rect x="0" y="0" width="60" height="60" style="fill:rgb(0%,0%,0%);fill-opacity:0.352941;stroke:none;"/>
  </g>
</mask>
<clipPath id="clip10">
  <rect x="0" y="0" width="60" height="60"/>
</clipPath>
<g id="surface32" clip-path="url(#clip10)">
<path style=" stroke:none;fill-rule:evenodd;fill:rgb(52.54902%,58.431373%,64.705882%);fill-opacity:1;" d="M 22.132812 41.523438 C 24.328125 41.523438 26.523438 41.523438 28.71875 41.523438 C 28.71875 44.453125 28.71875 47.378906 28.71875 50.304688 C 26.792969 50.417969 24.902344 50.292969 23.046875 49.9375 C 22.714844 47.132812 22.410156 44.328125 22.132812 41.523438 Z M 22.5 42.257812 C 22.835938 44.578125 23.203125 46.894531 23.597656 49.207031 C 25.164062 49.570312 26.75 49.691406 28.355469 49.574219 C 28.355469 47.132812 28.355469 44.695312 28.355469 42.257812 C 26.402344 42.257812 24.453125 42.257812 22.5 42.257812 Z M 22.5 42.257812 "/>
</g>
<mask id="mask10">
  <g filter="url(#alpha)">
<rect x="0" y="0" width="60" height="60" style="fill:rgb(0%,0%,0%);fill-opacity:0.937255;stroke:none;"/>
  </g>
</mask>
<clipPath id="clip11">
  <rect x="0" y="0" width="60" height="60"/>
</clipPath>
<g id="surface35" clip-path="url(#clip11)">
<path style=" stroke:none;fill-rule:evenodd;fill:rgb(53.333333%,59.215686%,65.882353%);fill-opacity:1;" d="M 41.160156 41.523438 C 43.355469 41.523438 45.546875 41.523438 47.742188 41.523438 C 47.015625 44.308594 46.347656 47.113281 45.730469 49.9375 C 43.875 50.292969 41.984375 50.417969 40.0625 50.304688 C 40.226562 47.335938 40.59375 44.410156 41.160156 41.523438 Z M 41.523438 42.257812 C 41.160156 44.683594 40.917969 47.121094 40.792969 49.574219 C 42.355469 49.683594 43.878906 49.558594 45.367188 49.207031 C 45.890625 47.003906 46.441406 44.808594 47.011719 42.621094 C 45.199219 42.257812 43.371094 42.136719 41.523438 42.257812 Z M 41.523438 42.257812 "/>
</g>
<mask id="mask11">
  <g filter="url(#alpha)">
<rect x="0" y="0" width="60" height="60" style="fill:rgb(0%,0%,0%);fill-opacity:0.788235;stroke:none;"/>
  </g>
</mask>
<clipPath id="clip12">
  <rect x="0" y="0" width="60" height="60"/>
</clipPath>
<g id="surface38" clip-path="url(#clip12)">
<path style=" stroke:none;fill-rule:evenodd;fill:rgb(53.333333%,59.215686%,65.490196%);fill-opacity:1;" d="M 31.644531 41.523438 C 33.839844 41.523438 36.035156 41.523438 38.230469 41.523438 C 37.898438 44.324219 37.59375 47.128906 37.316406 49.9375 C 35.460938 50.292969 33.570312 50.417969 31.644531 50.304688 C 31.644531 47.378906 31.644531 44.453125 31.644531 41.523438 Z M 32.011719 42.257812 C 32.011719 44.695312 32.011719 47.132812 32.011719 49.574219 C 33.597656 49.574219 35.183594 49.574219 36.769531 49.574219 C 37.0625 47.171875 37.425781 44.792969 37.867188 42.4375 C 35.917969 42.257812 33.96875 42.195312 32.011719 42.257812 Z M 32.011719 42.257812 "/>
</g>
</defs>
<g id="surface1">
<path style=" stroke:none;fill-rule:evenodd;fill:rgb(98.039216%,98.431373%,98.431373%);fill-opacity:1;" d="M 42.988281 18.839844 C 42.167969 16.589844 41.070312 14.519531 39.695312 12.621094 C 39.140625 11.207031 38.53125 9.804688 37.867188 8.414062 C 38.210938 7.289062 38.945312 6.925781 40.0625 7.316406 C 42.574219 12.042969 45.136719 16.738281 47.742188 21.402344 C 50.191406 21.671875 52.628906 21.917969 55.0625 22.132812 C 55.800781 24.242188 55.984375 26.4375 55.609375 28.71875 C 55.058594 29.789062 54.203125 30.523438 53.046875 30.914062 C 51.523438 38.300781 49.632812 45.554688 47.378906 52.683594 C 35.914062 52.925781 24.453125 52.925781 12.988281 52.683594 C 12.804688 52.5 12.621094 52.316406 12.4375 52.132812 C 10.730469 45.0625 9.023438 37.988281 7.316406 30.914062 C 6.335938 30.484375 5.480469 29.875 4.757812 29.085938 C 4.511719 27.132812 4.511719 25.183594 4.757812 23.230469 C 4.9375 22.5625 5.367188 22.132812 6.035156 21.953125 C 8.109375 21.828125 10.183594 21.707031 12.257812 21.585938 C 14.894531 17.101562 17.394531 12.527344 19.757812 7.867188 C 21.832031 6.640625 22.5625 7.25 21.953125 9.695312 C 19.734375 13.640625 17.722656 17.664062 15.914062 21.769531 C 25.425781 21.769531 34.9375 21.769531 44.453125 21.769531 C 44.34375 20.578125 43.855469 19.601562 42.988281 18.839844 Z M 7.5 24.695312 C 22.5 24.695312 37.5 24.695312 52.5 24.695312 C 52.5 25.546875 52.5 26.402344 52.5 27.257812 C 37.5 27.257812 22.5 27.257812 7.5 27.257812 C 7.5 26.402344 7.5 25.546875 7.5 24.695312 Z M 21.035156 31.28125 C 23.40625 30.917969 25.847656 30.796875 28.355469 30.914062 C 28.355469 33.355469 28.355469 35.792969 28.355469 38.230469 C 26.28125 38.230469 24.207031 38.230469 22.132812 38.230469 C 21.855469 35.855469 21.488281 33.535156 21.035156 31.28125 Z M 10.425781 31.28125 C 12.675781 30.917969 14.992188 30.796875 17.378906 30.914062 C 17.742188 33.339844 17.984375 35.777344 18.109375 38.230469 C 16.160156 38.230469 14.207031 38.230469 12.257812 38.230469 C 11.808594 35.832031 11.199219 33.515625 10.425781 31.28125 Z M 32.011719 30.914062 C 34.328125 30.914062 36.644531 30.914062 38.964844 30.914062 C 38.839844 33.367188 38.597656 35.804688 38.230469 38.230469 C 36.160156 38.230469 34.085938 38.230469 32.011719 38.230469 C 32.011719 35.792969 32.011719 33.355469 32.011719 30.914062 Z M 42.988281 30.914062 C 45.183594 30.914062 47.378906 30.914062 49.574219 30.914062 C 49.132812 33.363281 48.644531 35.800781 48.109375 38.230469 C 46.03125 38.292969 43.960938 38.230469 41.890625 38.046875 C 42.328125 35.695312 42.695312 33.316406 42.988281 30.914062 Z M 13.355469 42.257812 C 15.183594 42.257812 17.011719 42.257812 18.839844 42.257812 C 19.144531 44.6875 19.390625 47.128906 19.574219 49.574219 C 17.988281 49.574219 16.402344 49.574219 14.816406 49.574219 C 14.445312 47.109375 13.957031 44.671875 13.355469 42.257812 Z M 22.5 42.257812 C 24.453125 42.257812 26.402344 42.257812 28.355469 42.257812 C 28.355469 44.695312 28.355469 47.132812 28.355469 49.574219 C 26.75 49.691406 25.164062 49.570312 23.597656 49.207031 C 23.203125 46.894531 22.835938 44.578125 22.5 42.257812 Z M 41.523438 42.257812 C 43.371094 42.136719 45.199219 42.257812 47.011719 42.621094 C 46.441406 44.808594 45.890625 47.003906 45.367188 49.207031 C 43.878906 49.558594 42.355469 49.683594 40.792969 49.574219 C 40.917969 47.121094 41.160156 44.683594 41.523438 42.257812 Z M 32.011719 42.257812 C 33.96875 42.195312 35.917969 42.257812 37.867188 42.4375 C 37.425781 44.792969 37.0625 47.171875 36.769531 49.574219 C 35.183594 49.574219 33.597656 49.574219 32.011719 49.574219 C 32.011719 47.132812 32.011719 44.695312 32.011719 42.257812 Z M 32.011719 42.257812 "/>
<use xlink:href="#surface5" mask="url(#mask0)"/>
<use xlink:href="#surface8" mask="url(#mask1)"/>
<use xlink:href="#surface11" mask="url(#mask2)"/>
<use xlink:href="#surface14" mask="url(#mask3)"/>
<use xlink:href="#surface17" mask="url(#mask4)"/>
<use xlink:href="#surface20" mask="url(#mask5)"/>
<use xlink:href="#surface23" mask="url(#mask6)"/>
<use xlink:href="#surface26" mask="url(#mask7)"/>
<use xlink:href="#surface29" mask="url(#mask8)"/>
<use xlink:href="#surface32" mask="url(#mask9)"/>
<use xlink:href="#surface35" mask="url(#mask10)"/>
<use xlink:href="#surface38" mask="url(#mask11)"/>
</g>
</svg>
